<?xml version="1.0" encoding="UTF-8" standalone="no"?>
<!-- Created with Inkscape (http://www.inkscape.org/) -->

<svg
   version="1.1"
   id="svg432"
   xml:space="preserve"
   width="682.66669"
   height="682.66669"
   viewBox="0 0 682.66669 682.66669"
   xmlns="http://www.w3.org/2000/svg"
   xmlns:svg="http://www.w3.org/2000/svg"><defs
     id="defs436"><clipPath
       clipPathUnits="userSpaceOnUse"
       id="clipPath446"><path
         d="M 0,512 H 512 V 0 H 0 Z"
         id="path444" /></clipPath></defs><g
     id="g438"
     transform="matrix(1.3333333,0,0,-1.3333333,0,682.66667)"><g
       id="g440"><g
         id="g442"
         clip-path="url(#clipPath446)"><g
           id="g448"
           transform="translate(7.5,93.8555)"><path
             d="m 0,0 v 365.739 c 0,5.523 4.478,10 10,10 h 477 c 5.522,0 10,-4.477 10,-10 V 0 c 0,-5.523 -4.478,-10 -10,-10 H 10 C 4.478,-10 0,-5.523 0,0"
             style="fill:#fed23a;fill-opacity:1;fill-rule:nonzero;stroke:none"
             id="path450" /></g><path
           d="M 38.179,114.461 H 473.822 V 438.989 H 38.179 Z"
           style="fill:#fff9e9;fill-opacity:1;fill-rule:nonzero;stroke:none"
           id="path452" /><path
           d="m 433.821,114.461 h 40 v 324.528 h -40 z"
           style="fill:#fff4d6;fill-opacity:1;fill-rule:nonzero;stroke:none"
           id="path454" /><g
           id="g456"
           transform="translate(390.8877,42.4053)"><path
             d="M 0,0 -21.5,10 -43,0 V 129 H 0 Z"
             style="fill:#ffabe7;fill-opacity:1;fill-rule:nonzero;stroke:none"
             id="path458" /></g><g
           id="g460"
           transform="translate(369.3877,146.4683)"><path
             d="m 0,0 c -7.586,0 -12.554,12.914 -19.151,15.655 -6.839,2.841 -19.443,-2.664 -24.597,2.499 -5.153,5.163 0.341,17.79 -2.495,24.641 -2.736,6.61 -15.626,11.587 -15.626,19.187 0,7.601 12.89,12.578 15.626,19.187 2.836,6.851 -2.658,19.478 2.495,24.641 5.154,5.164 17.758,-0.341 24.597,2.5 6.597,2.74 11.565,15.654 19.151,15.654 7.587,0 12.555,-12.914 19.152,-15.654 6.839,-2.841 19.443,2.663 24.597,-2.5 5.153,-5.164 -0.341,-17.79 2.495,-24.641 C 48.979,74.56 61.87,69.583 61.87,61.982 61.87,54.382 48.979,49.405 46.243,42.795 43.408,35.944 48.902,23.317 43.748,18.154 38.595,12.991 25.991,18.496 19.152,15.654 12.555,12.914 7.587,0 0,0"
             style="fill:#ff6ed4;fill-opacity:1;fill-rule:nonzero;stroke:none"
             id="path462" /></g><g
           id="g464"
           transform="translate(415.6309,227.6372)"><path
             d="m 0,0 c -2.835,6.851 2.659,19.478 -2.494,24.641 -5.154,5.163 -17.758,-0.341 -24.597,2.5 -6.597,2.74 -11.565,15.654 -19.151,15.654 -7.587,0 -12.555,-12.914 -19.153,-15.654 -0.272,-0.114 -0.557,-0.209 -0.848,-0.297 6.987,-2.118 18.801,2.754 23.749,-2.203 C -37.341,19.478 -42.835,6.851 -40,0 c 2.736,-6.609 15.627,-11.586 15.627,-19.187 0,-7.6 -12.891,-12.577 -15.627,-19.187 -2.836,-6.851 2.659,-19.478 -2.494,-24.641 -4.949,-4.957 -16.762,-0.085 -23.748,-2.202 0.29,-0.088 0.575,-0.184 0.847,-0.297 6.598,-2.741 11.566,-15.655 19.153,-15.655 7.586,0 12.554,12.914 19.151,15.655 6.839,2.841 19.443,-2.664 24.597,2.499 5.153,5.163 -0.342,17.79 2.494,24.641 2.736,6.61 15.627,11.587 15.627,19.187 C 15.627,-11.586 2.736,-6.609 0,0"
             style="fill:#ff5ccf;fill-opacity:1;fill-rule:nonzero;stroke:none"
             id="path466" /></g><g
           id="g468"
           transform="translate(391.1826,208.4502)"><path
             d="m 0,0 c 0,-12.037 -9.758,-21.794 -21.795,-21.794 -12.036,0 -21.794,9.757 -21.794,21.794 0,12.037 9.758,21.794 21.794,21.794 C -9.758,21.794 0,12.037 0,0"
             style="fill:#ffabe7;fill-opacity:1;fill-rule:nonzero;stroke:none"
             id="path470" /></g><g
           id="g472"
           transform="translate(7.5,398)"><path
             d="m 0,0 v 61.595 c 0,5.523 4.478,10 10,10 h 477 c 5.522,0 10,-4.477 10,-10 v -365.74 c 0,-5.522 -4.478,-10 -10,-10 H 384.5"
             style="fill:none;stroke:#060606;stroke-width:15;stroke-linecap:round;stroke-linejoin:round;stroke-miterlimit:10;stroke-dasharray:none;stroke-opacity:1"
             id="path474" /></g><g
           id="g476"
           transform="translate(347.5,83.8555)"><path
             d="m 0,0 h -330 c -5.522,0 -10,4.477 -10,10 v 266.145"
             style="fill:none;stroke:#060606;stroke-width:15;stroke-linecap:round;stroke-linejoin:round;stroke-miterlimit:10;stroke-dasharray:none;stroke-opacity:1"
             id="path478" /></g><g
           id="g480"
           transform="translate(473.8213,233)"><path
             d="m 0,0 v 205.989 h -435.643 v -324.528 h 307.822"
             style="fill:none;stroke:#060606;stroke-width:15;stroke-linecap:round;stroke-linejoin:round;stroke-miterlimit:10;stroke-dasharray:none;stroke-opacity:1"
             id="path482" /></g><g
           id="g484"
           transform="translate(392.5,114.4614)"><path
             d="M 0,0 H 81.321 V 78.539"
             style="fill:none;stroke:#060606;stroke-width:15;stroke-linecap:round;stroke-linejoin:round;stroke-miterlimit:10;stroke-dasharray:none;stroke-opacity:1"
             id="path486" /></g><g
           id="g488"
           transform="translate(97.2627,376.2095)"><path
             d="M 0,0 H 258.547"
             style="fill:none;stroke:#060606;stroke-width:15;stroke-linecap:round;stroke-linejoin:round;stroke-miterlimit:10;stroke-dasharray:none;stroke-opacity:1"
             id="path490" /></g><g
           id="g492"
           transform="translate(97.2627,330.5918)"><path
             d="M 0,0 H 317.475"
             style="fill:none;stroke:#060606;stroke-width:15;stroke-linecap:round;stroke-linejoin:round;stroke-miterlimit:10;stroke-dasharray:none;stroke-opacity:1"
             id="path494" /></g><g
           id="g496"
           transform="translate(97.2627,284.9741)"><path
             d="M 0,0 H 180.374"
             style="fill:none;stroke:#060606;stroke-width:15;stroke-linecap:round;stroke-linejoin:round;stroke-miterlimit:10;stroke-dasharray:none;stroke-opacity:1"
             id="path498" /></g><g
           id="g500"
           transform="translate(107.8652,158.1309)"><path
             d="M 0,0 C 9.693,25.519 13.997,52.699 14.7,79.917 9.79,79.252 4.879,78.588 -0.031,77.923 3.3,57.945 3.564,36.752 12.89,18.32 17.27,9.664 26.203,4.543 35.761,8.394 c 8.063,3.248 14.49,12.21 16.952,20.337 H 38.249 c 1.042,-5.412 3.961,-10.99 7.828,-14.894 7.275,-7.342 16.842,-6.557 26.358,-6.545 14.846,0.019 29.694,0.054 44.541,0.096 9.651,0.027 9.669,15.027 0,15 -12.73,-0.036 -25.46,-0.066 -38.19,-0.086 -4.09,-0.007 -8.18,-0.013 -12.268,-0.016 -3.13,-0.002 -6.506,-0.555 -9.151,1.465 -2.959,2.261 -3.977,5.452 -4.654,8.968 -1.467,7.615 -12.451,6.645 -14.464,0 -0.892,-2.943 -5.392,-11.367 -9.322,-10.679 -2.083,0.365 -2.993,3.579 -3.763,5.242 -1.499,3.239 -2.591,6.672 -3.525,10.112 C 17.69,51.928 16.901,67.103 14.433,81.911 13.001,90.498 -0.089,88.07 -0.3,79.917 -0.971,53.946 -5.218,28.331 -14.464,3.988 -17.895,-5.045 -3.399,-8.951 0,0"
             style="fill:#060606;fill-opacity:1;fill-rule:nonzero;stroke:none"
             id="path502" /></g><g
           id="g504"
           transform="translate(390.8877,161.4053)"><path
             d="m 0,0 v -119 l -21.5,10 -21.5,-10 V 0"
             style="fill:none;stroke:#060606;stroke-width:15;stroke-linecap:round;stroke-linejoin:round;stroke-miterlimit:10;stroke-dasharray:none;stroke-opacity:1"
             id="path506" /></g><g
           id="g508"
           transform="translate(369.3877,146.4683)"><path
             d="m 0,0 c -7.586,0 -12.554,12.914 -19.151,15.655 -6.839,2.841 -19.443,-2.664 -24.597,2.499 -5.153,5.163 0.341,17.79 -2.495,24.641 -2.736,6.61 -15.626,11.587 -15.626,19.187 0,7.601 12.89,12.578 15.626,19.187 2.836,6.851 -2.658,19.478 2.495,24.641 5.154,5.164 17.758,-0.341 24.597,2.5 6.597,2.74 11.565,15.654 19.151,15.654 7.587,0 12.555,-12.914 19.152,-15.654 6.839,-2.841 19.443,2.663 24.597,-2.5 5.153,-5.164 -0.341,-17.79 2.495,-24.641 C 48.979,74.56 61.87,69.583 61.87,61.982 61.87,54.382 48.979,49.405 46.243,42.795 43.408,35.944 48.902,23.317 43.748,18.154 38.595,12.991 25.991,18.496 19.152,15.654 12.555,12.914 7.587,0 0,0 Z"
             style="fill:none;stroke:#060606;stroke-width:15;stroke-linecap:round;stroke-linejoin:round;stroke-miterlimit:10;stroke-dasharray:none;stroke-opacity:1"
             id="path510" /></g><g
           id="g512"
           transform="translate(391.1826,208.4502)"><path
             d="m 0,0 c 0,-12.037 -9.758,-21.794 -21.795,-21.794 -12.036,0 -21.794,9.757 -21.794,21.794 0,12.037 9.758,21.794 21.794,21.794 C -9.758,21.794 0,12.037 0,0 Z"
             style="fill:none;stroke:#060606;stroke-width:15;stroke-linecap:round;stroke-linejoin:round;stroke-miterlimit:10;stroke-dasharray:none;stroke-opacity:1"
             id="path514" /></g></g></g></g></svg>
