<svg xmlns="http://www.w3.org/2000/svg" version="1.1" xmlns:xlink="http://www.w3.org/1999/xlink" width="512" height="512" x="0" y="0" viewBox="0 0 512 512" style="enable-background:new 0 0 512 512" xml:space="preserve"><g><path d="m246.334 271.007-53.833-16.15v-21.805c19.895-14.732 33.355-37.684 35.266-63.805 10.392-3.128 17.984-12.787 17.984-24.185 0-7.378-3.316-14.371-8.875-19.125V74.062c0-14.222-7.203-27.525-19.008-35.497-3.947-14.828-17.247-25.253-32.868-25.253h-71c-38.392 0-69.625 31.233-69.625 69.625v43c-5.559 4.754-8.875 11.746-8.875 19.125 0 11.398 7.592 21.057 17.984 24.185 1.911 26.121 15.37 49.073 35.266 63.805v21.805l-64.431 19.329C9.773 278.55 0 291.685 0 306.872v86.69a7.5 7.5 0 0 0 7.5 7.5h1.375v90.125a7.5 7.5 0 0 0 15 0v-90.125H53.25v90.125a7.5 7.5 0 0 0 15 0v-142a7.493 7.493 0 0 0-.792-3.354l-17.75-35.5a7.499 7.499 0 0 0-10.062-3.354 7.499 7.499 0 0 0-3.354 10.062l16.958 33.917v35.104H15v-79.19c0-8.511 5.478-15.873 13.63-18.319l26.933-8.08c9.156 38.905 44.392 67.338 85.063 67.338a87.365 87.365 0 0 0 56.974-21.128 87.478 87.478 0 0 0 28.071-46.216l16.352 4.907a7.486 7.486 0 0 0 2.158.318 7.5 7.5 0 0 0 2.153-14.685zM68.25 162.812a7.5 7.5 0 0 0-7.5-7.5c-5.652 0-10.25-4.598-10.25-10.25 0-3.638 1.924-6.93 5.147-8.806.166-.097.317-.211.474-.319a10.229 10.229 0 0 1 4.629-1.125h11.353c7.06 0 13.303-4.5 15.535-11.197l5.167-15.5c17.632-.389 73.2-2.857 104.424-18.47a7.499 7.499 0 0 0 3.354-10.062 7.499 7.499 0 0 0-10.062-3.354C157.03 92.974 88.067 93.187 87.374 93.187a7.5 7.5 0 0 0-7.114 5.128l-6.852 20.557c-.188.562-.711.94-1.305.94H60.75c-.459 0-.917.02-1.375.045v-36.92c0-30.12 24.505-54.625 54.625-54.625h71c9.408 0 17.313 6.78 18.796 16.121a7.501 7.501 0 0 0 3.723 5.357c8.855 4.994 14.355 14.294 14.355 24.272v55.712a7.5 7.5 0 0 0 3.728 6.482c3.223 1.876 5.147 5.168 5.147 8.806 0 5.652-4.598 10.25-10.25 10.25a7.5 7.5 0 0 0-7.5 7.5c0 39.908-32.467 72.375-72.375 72.375S68.25 202.719 68.25 162.812zm109.25 79.193v18.432c0 20.333-16.542 36.875-36.875 36.875-20.301 0-36.82-16.49-36.873-36.779l-.002-.107v-18.421c11.211 5.241 23.704 8.182 36.875 8.182s25.664-2.94 36.875-8.182zm10.313 73.31a72.359 72.359 0 0 1-47.188 17.497c-34 0-63.401-23.987-70.649-56.662l19.715-5.914c4.595 23.933 25.681 42.076 50.934 42.076 25.254 0 46.339-18.143 50.934-42.077l19.714 5.915c-3.361 15.152-11.577 28.938-23.46 39.165z" fill="#ffffff" opacity="1" data-original="#000000"></path><path d="M163.1 183.614a7.499 7.499 0 0 0-10.549 1.1c-3.19 3.934-7.425 6.1-11.925 6.1s-8.735-2.166-11.925-6.1a7.5 7.5 0 1 0-11.649 9.449c6.004 7.403 14.596 11.65 23.573 11.65s17.569-4.247 23.575-11.65a7.5 7.5 0 0 0-1.1-10.549zM105.125 137.562a7.5 7.5 0 0 0-7.5 7.5v8.875a7.5 7.5 0 0 0 15 0v-8.875a7.5 7.5 0 0 0-7.5-7.5zM176.125 137.562a7.5 7.5 0 0 0-7.5 7.5v8.875a7.5 7.5 0 0 0 15 0v-8.875a7.5 7.5 0 0 0-7.5-7.5zM402.725 227.987a7.499 7.499 0 0 0-10.549 1.1c-3.19 3.934-7.425 6.1-11.925 6.1s-8.735-2.166-11.925-6.1a7.5 7.5 0 1 0-11.649 9.449c6.005 7.404 14.598 11.65 23.575 11.65 8.977 0 17.567-4.246 23.573-11.65a7.5 7.5 0 0 0-1.1-10.549zM344.75 181.937a7.5 7.5 0 0 0-7.5 7.5v8.875a7.5 7.5 0 0 0 15 0v-8.875a7.5 7.5 0 0 0-7.5-7.5zM415.75 181.937a7.5 7.5 0 0 0-7.5 7.5v8.875a7.5 7.5 0 0 0 15 0v-8.875a7.5 7.5 0 0 0-7.5-7.5z" fill="#ffffff" opacity="1" data-original="#000000"></path><path d="m490.549 335.529-60.856-24.343a10.39 10.39 0 0 1-1.475-.733c41.218-8.3 60.521-16.101 61.375-16.451a7.501 7.501 0 0 0 4.599-7.871c-.088-.706-8.817-71.242-8.817-132.195 0-57.966-47.159-105.125-105.125-105.125s-105.125 47.16-105.125 105.127c0 60.924-8.729 131.489-8.817 132.195a7.5 7.5 0 0 0 4.599 7.871c.854.35 20.157 8.15 61.375 16.451a10.39 10.39 0 0 1-1.475.733l-60.855 24.342c-13.031 5.212-21.451 17.649-21.451 31.684v18.849H228v-35.104l16.958-33.917a7.499 7.499 0 0 0-3.354-10.062 7.499 7.499 0 0 0-10.062 3.354l-17.75 35.5a7.496 7.496 0 0 0-.792 3.354v142a7.5 7.5 0 0 0 15 0v-90.125h20.5v10.254a7.502 7.502 0 0 0 7.5 7.5h1.375v72.371a7.5 7.5 0 0 0 15 0v-72.375h20.5v72.375a7.5 7.5 0 0 0 15 0v-97.625a7.5 7.5 0 0 0-15 0v10.25H263.5v-36.6c0-7.866 4.719-14.836 12.022-17.757l29.917-11.967c10.279 32.414 40.433 54.698 74.811 54.698s64.532-22.285 74.811-54.698l29.917 11.967c7.303 2.921 12.022 9.892 12.022 17.757v36.6h-29.375v-10.25a7.5 7.5 0 0 0-15 0v97.625a7.5 7.5 0 0 0 15 0v-72.375h20.5v72.375a7.5 7.5 0 0 0 15 0v-72.375h1.375a7.5 7.5 0 0 0 7.5-7.5v-44.1c0-14.035-8.42-26.471-21.451-31.684zM290.124 153.937c.001-49.696 40.431-90.125 90.126-90.125s90.125 40.43 90.125 90.125c0 51.49 6.124 109.623 8.231 128.098-8.309 2.823-26.493 8.386-55.356 14.114v-12.912a86.613 86.613 0 0 0 11.89-8.065c15.239-12.317 26.006-29.568 30.319-48.573a87.857 87.857 0 0 0 2.166-19.412c0-43.685-31.643-49.967-62.243-56.042-19.57-3.885-39.806-7.903-55.947-20.815a7.497 7.497 0 0 0-6.286-1.466 7.513 7.513 0 0 0-5.103 3.959c-.042.083-4.244 8.355-11.351 16.41-6.019 6.822-15.472 14.954-26.321 14.954-3.692 0-7.199.803-10.363 2.234.073-4.187.113-8.357.113-12.484zm90.126 125.626c-16.746 0-32.466-5.553-45.461-16.057-12.629-10.208-21.55-24.494-25.121-40.227a72.844 72.844 0 0 1-1.793-16.092 7.5 7.5 0 0 0-7.5-7.5c-5.652 0-10.25-4.598-10.25-10.25s4.598-10.25 10.25-10.25c22.743 0 39.239-20.594 46.688-32.116 17.491 11.261 37.496 15.233 55.398 18.788 32.963 6.544 50.164 11.354 50.164 41.329 0 5.433-.604 10.847-1.793 16.092-3.57 15.733-12.492 30.019-25.121 40.227-12.995 10.504-28.715 16.056-45.461 16.056zm-98.356 2.472c1.327-11.638 4.248-39.011 6.228-70.545a25.125 25.125 0 0 0 4.988 2.132c.32 4.378.965 8.722 1.931 12.977 4.313 19.005 15.081 36.256 30.319 48.573a86.613 86.613 0 0 0 11.89 8.065v12.912c-28.868-5.729-47.052-11.292-55.356-14.114zm98.356 95.153c-28.18 0-52.858-18.501-60.846-45.284l16.973-6.789c9.642-3.857 15.873-13.059 15.873-23.444v-11.745c8.97 3.034 18.432 4.638 28 4.638s19.03-1.604 28-4.638v11.745c0 10.385 6.23 19.587 15.872 23.444l16.974 6.79c-7.988 26.78-32.665 45.283-60.846 45.283z" fill="#ffffff" opacity="1" data-original="#000000"></path></g></svg>