<svg xmlns="http://www.w3.org/2000/svg" version="1.1" xmlns:xlink="http://www.w3.org/1999/xlink" width="512" height="512" x="0" y="0" viewBox="0 0 64 64" style="enable-background:new 0 0 512 512" xml:space="preserve"><g><path d="M54.005 53.998h-1V34.993a21.06 21.06 0 0 0-12.6-19.25A20.505 20.505 0 0 0 37 14.59v-1.254a5.02 5.02 0 0 0-4.001-4.9V4.986a1 1 0 0 0-2 0v3.451a5.01 5.01 0 0 0-4.002 4.9v2.051a1.038 1.038 0 0 0 1.198.98c11.473-2.543 23.031 6.849 22.809 18.626v20.006a1 1 0 0 0 1 1h2a1 1 0 0 1 0 2H9.993a1 1 0 0 1 0-2h38.011a1 1 0 0 0 0-2h-35.01V34.992a18.99 18.99 0 0 1 11.403-17.418 1 1 0 0 0-.8-1.835 20.992 20.992 0 0 0-12.604 19.253v19.005h-1a3.001 3.001 0 0 0 0 6.002h44.013a3.001 3.001 0 0 0 0-6.002zM34.999 14.227a21.28 21.28 0 0 0-6.001 0c-.55-5.176 6.557-5.172 6.001 0z" fill="#ffffff" opacity="1" data-original="#000000"></path><path d="M42.606 24.385a14.907 14.907 0 0 1 4.397 10.608 1 1 0 0 0 2 0 17.093 17.093 0 0 0-17.005-17.005 1 1 0 0 0 0 2 14.909 14.909 0 0 1 10.608 4.397z" fill="#ffffff" opacity="1" data-original="#000000"></path></g></svg>