<svg width="3000" height="3000" viewBox="0 0 3000 3000" fill="none" xmlns="http://www.w3.org/2000/svg">
<g clip-path="url(#clip0_17_108)">
<path d="M3035.8 -47.0801H-32.5801V3021.3H3035.8V-47.0801Z" fill="#7A1935"/>
<path d="M2730.15 1773.34C2724.26 1765.91 2717.77 1759.02 2710.99 1752.42C2631.92 1675.59 2653.62 1566.94 2666.84 1523.18C2668.99 1516.08 2661.1 1510.21 2654.87 1514.21C2586.11 1558.37 2530.31 1657.47 2530.31 1657.47C2440.93 1829.95 2662.01 1934.48 2662.01 1934.48C2682.92 1950.42 2669.07 1953.81 2669.07 1953.81C2342.93 1894.23 1867.82 1477.15 1867.82 1477.15C1741.89 1361.9 1658.57 1230.92 1603.64 1112.66C1602.28 1109.19 1516.28 888.629 1504.52 766.022C1504.38 764.468 1504.29 762.93 1504.24 761.376L1504.23 761.002C1504.2 759.897 1503.28 759 1502.16 759H1501.7C1500.67 759 1499.8 759.762 1499.7 760.793C1496.71 790.571 1451.59 1184.61 1131.92 1477.13C1131.92 1477.13 656.825 1894.21 330.675 1953.8C330.675 1953.8 316.824 1950.41 337.727 1934.46C337.727 1934.46 558.811 1829.94 469.433 1657.45C469.433 1657.45 413.613 1558.35 344.869 1514.2C338.639 1510.2 330.75 1516.07 332.901 1523.16C346.124 1566.91 367.819 1675.58 288.75 1752.41C281.952 1759.01 275.482 1765.91 269.596 1773.32C234.215 1817.92 144.912 1953.44 290.692 2033.78C290.692 2033.78 434.157 2114.53 786.17 1902.07C786.17 1902.07 1277.99 1655.17 1453.96 1260.38H1453.98L1454.08 1260.13C1466.8 1231.59 1477.85 1202.27 1486.95 1172.21L1499.86 1137.68L1513.61 1174.92C1521.65 1201.09 1531.18 1226.72 1541.98 1251.76L1542.06 1251.98L1542.07 1251.97C1714.75 1651.67 2213.56 1902.07 2213.56 1902.07C2565.57 2114.53 2709.03 2033.78 2709.03 2033.78C2854.84 1953.45 2765.53 1817.94 2730.15 1773.34Z" fill="#F6A709"/>
</g>
<defs>
<clipPath id="clip0_17_108">
<rect width="3000" height="3000" rx="200" fill="white"/>
</clipPath>
</defs>
</svg>
