<svg id="Capa_1" enable-background="new 0 0 512 512" height="512" viewBox="0 0 512 512" width="512" xmlns="http://www.w3.org/2000/svg"><g><path d="m374.28 250.567-28.678-16.557c-2.508-1.448-4.053-4.124-4.053-7.02v-84.72c0-2.896 1.545-5.572 4.053-7.02l38.998-22.516h-327.1c-27.614 0-50 22.386-50 50v229.238c0 5.523 4.477 10 10 10h356.78z" fill="#ffeee6"/><g><path d="m58.383 391.972v-229.238c0-27.614 22.386-50 50-50h-50.883c-27.614 0-50 22.386-50 50v229.238c0 5.523 4.477 10 10 10h50.883c-5.523 0-10-4.477-10-10z" fill="#ffdfcf"/></g><g><g><path d="m427.078 276.369c-2.508 1.448-5.598 1.448-8.106 0l-44.692-25.802v165.374c0 3.677 4.353 5.619 7.089 3.163l41.655-37.39 41.655 37.39c2.736 2.456 7.089.514 7.089-3.163v-165.374z" fill="#fe7d43"/><g><path d="m374.28 250.567v165.374c0 3.677 4.353 5.619 7.089 3.163l18.141-16.284v-137.686z" fill="#fd6930"/></g></g><g><g><path d="m341.549 142.27v84.72c0 2.896 1.545 5.572 4.053 7.02l73.369 42.36c2.508 1.448 5.598 1.448 8.106 0l73.369-42.36c2.508-1.448 4.053-4.124 4.053-7.02v-84.72c0-2.896-1.545-5.572-4.053-7.02l-73.369-42.36c-2.508-1.448-5.598-1.448-8.106 0l-73.369 42.36c-2.508 1.448-4.053 4.124-4.053 7.02z" fill="#fedf30"/></g><g><path d="m375.049 162.594c0-3.107 1.658-5.979 4.349-7.533l77.682-44.85-30.002-17.321c-2.508-1.448-5.598-1.448-8.106 0l-73.37 42.36c-2.508 1.448-4.053 4.124-4.053 7.02v84.72c0 2.896 1.545 5.572 4.053 7.02l29.447 17.001z" fill="#fac600"/></g></g></g><g><path d="m235 394.472h-217.5c-1.378 0-2.5-1.121-2.5-2.5v-229.238c0-23.435 19.065-42.5 42.5-42.5h56.5c4.142 0 7.5-3.357 7.5-7.5s-3.358-7.5-7.5-7.5h-56.5c-31.706 0-57.5 25.794-57.5 57.5v229.238c0 9.649 7.851 17.5 17.5 17.5h217.5c4.142 0 7.5-3.357 7.5-7.5s-3.358-7.5-7.5-7.5z"/><path d="m504.197 128.755-73.369-42.359c-4.814-2.779-10.794-2.779-15.606 0l-32.63 18.839h-233.592c-4.142 0-7.5 3.357-7.5 7.5s3.358 7.5 7.5 7.5h207.611l-14.758 8.521c-4.813 2.778-7.804 7.957-7.804 13.516v84.72c0 5.558 2.99 10.736 7.804 13.515l24.928 14.392v139.575h-96.781c-4.143 0-7.5 3.357-7.5 7.5s3.357 7.5 7.5 7.5h96.78v6.469c0 4.632 2.733 8.844 6.964 10.73 1.532.685 3.161 1.018 4.779 1.018 2.847 0 5.659-1.032 7.855-3.005l36.646-32.893 36.645 32.892c3.445 3.095 8.407 3.875 12.637 1.988s6.964-6.099 6.964-10.73v-102.941c0-4.143-3.357-7.5-7.5-7.5s-7.5 3.357-7.5 7.5v95.655l-33.745-30.289v-95.341c.1-.055.203-.104.303-.161l33.442-19.308v14.445c0 4.143 3.357 7.5 7.5 7.5s7.5-3.357 7.5-7.5v-23.105l24.929-14.392c4.812-2.779 7.802-7.958 7.802-13.515v-84.72c-.001-5.558-2.99-10.737-7.804-13.516zm-122.417 279.901v-145.098l33.442 19.308c.099.057.202.106.302.161v95.341zm115.22-181.666c0 .216-.116.417-.303.524l-73.369 42.359c-.188.11-.422.107-.606.001l-73.369-42.36c-.188-.108-.304-.31-.304-.524v-84.72c0-.216.116-.417.304-.525l73.37-42.359c.093-.054.197-.081.302-.081s.209.027.303.081l73.369 42.359c.188.107.304.31.304.525v84.72z"/><path d="m397.194 175.759c12.562 0 22.78-10.219 22.78-22.78s-10.219-22.779-22.78-22.779-22.78 10.219-22.78 22.779c0 12.561 10.219 22.78 22.78 22.78zm0-30.56c4.29 0 7.78 3.49 7.78 7.779 0 4.29-3.49 7.78-7.78 7.78s-7.78-3.49-7.78-7.78c0-4.289 3.49-7.779 7.78-7.779z"/><path d="m448.854 193.501c-12.561 0-22.779 10.219-22.779 22.78s10.219 22.78 22.779 22.78c12.562 0 22.78-10.219 22.78-22.78s-10.218-22.78-22.78-22.78zm0 30.56c-4.289 0-7.779-3.49-7.779-7.78s3.49-7.78 7.779-7.78c4.29 0 7.78 3.49 7.78 7.78s-3.489 7.78-7.78 7.78z"/><path d="m462.821 131.705c-3.311-2.489-8.014-1.824-10.502 1.486l-70.578 93.862c-2.489 3.311-1.824 8.013 1.486 10.502 1.351 1.016 2.933 1.506 4.502 1.506 2.277 0 4.526-1.032 6-2.992l70.578-93.862c2.49-3.312 1.825-8.013-1.486-10.502z"/><path d="m182.097 279.594v83.757c0 4.143 3.358 7.5 7.5 7.5s7.5-3.357 7.5-7.5v-83.757c0-4.143-3.358-7.5-7.5-7.5s-7.5 3.357-7.5 7.5z"/><path d="m274.327 364.639c0-4.143-3.357-7.5-7.5-7.5h-16.304c-13.672 0-24.794-11.123-24.794-24.795v-19.168c0-13.672 11.123-24.794 24.794-24.794h16.304c4.143 0 7.5-3.357 7.5-7.5s-3.357-7.5-7.5-7.5h-16.304c-21.943 0-39.794 17.852-39.794 39.794v19.168c0 21.943 17.852 39.795 39.794 39.795h16.304c4.143 0 7.5-3.357 7.5-7.5z"/><path d="m170.279 308.725v-16.385c0-11.164-9.083-20.246-20.246-20.246h-35.852c-4.142 0-7.5 3.357-7.5 7.5v83.757c0 4.143 3.358 7.5 7.5 7.5s7.5-3.357 7.5-7.5v-34.378h10.224l24.555 38.417c1.431 2.239 3.853 3.462 6.327 3.462 1.382 0 2.781-.382 4.032-1.182 3.49-2.23 4.511-6.868 2.28-10.358l-19.392-30.339h.326c11.164-.001 20.246-9.084 20.246-20.248zm-48.598-21.631h28.352c2.893 0 5.246 2.354 5.246 5.246v16.386c0 2.894-2.354 5.247-5.246 5.247h-28.352z"/><path d="m67.75 272.094h-27.66c-4.142 0-7.5 3.357-7.5 7.5v83.757c0 4.143 3.358 7.5 7.5 7.5s7.5-3.357 7.5-7.5v-34.378h20.16c15.681 0 28.439-12.758 28.439-28.439s-12.758-28.44-28.439-28.44zm0 41.878h-20.16v-26.879h20.16c7.41 0 13.439 6.029 13.439 13.439s-6.029 13.44-13.439 13.44z"/><path d="m342.587 288.383c4.143 0 7.5-3.357 7.5-7.5s-3.357-7.5-7.5-7.5h-48.599c-4.143 0-7.5 3.357-7.5 7.5v83.757c0 4.143 3.357 7.5 7.5 7.5h48.599c4.143 0 7.5-3.357 7.5-7.5s-3.357-7.5-7.5-7.5h-41.099v-26.88h41.099c4.143 0 7.5-3.357 7.5-7.5s-3.357-7.5-7.5-7.5h-41.099v-26.878h41.099z"/><path d="m52.995 157.567h35.765c4.142 0 7.5-3.357 7.5-7.5s-3.358-7.5-7.5-7.5h-35.765c-11.251 0-20.404 9.153-20.404 20.404v58.07c0 11.251 9.153 20.404 20.404 20.404h22.86c11.251 0 20.404-9.153 20.404-20.404v-32.261c0-4.143-3.358-7.5-7.5-7.5h-20.647c-4.142 0-7.5 3.357-7.5 7.5s3.358 7.5 7.5 7.5h13.147v24.761c0 2.979-2.424 5.404-5.404 5.404h-22.86c-2.98 0-5.404-2.425-5.404-5.404v-58.07c-.001-2.979 2.424-5.404 5.404-5.404z"/><path d="m273.47 142.567h-16.235c-4.142 0-7.5 3.357-7.5 7.5v83.879c0 4.143 3.358 7.5 7.5 7.5h16.235c22.02 0 39.934-17.915 39.934-39.935v-19.01c-.001-22.019-17.915-39.934-39.934-39.934zm24.933 58.944c0 13.749-11.186 24.935-24.934 24.935h-8.735v-68.879h8.735c13.748 0 24.934 11.186 24.934 24.935z"/><path d="m104.972 170.816v42.381c0 15.576 12.672 28.249 28.249 28.249h7.172c15.576 0 28.249-12.673 28.249-28.249v-42.381c0-15.576-12.672-28.248-28.249-28.248h-7.172c-15.577 0-28.249 12.672-28.249 28.248zm15 0c0-7.305 5.943-13.248 13.249-13.248h7.172c7.305 0 13.249 5.943 13.249 13.248v42.381c0 7.306-5.943 13.249-13.249 13.249h-7.172c-7.305 0-13.249-5.943-13.249-13.249z"/><path d="m212.773 241.446c15.576 0 28.249-12.673 28.249-28.249v-42.381c0-15.576-12.672-28.248-28.249-28.248h-7.172c-15.576 0-28.249 12.672-28.249 28.248v42.381c0 15.576 12.672 28.249 28.249 28.249zm-20.42-28.249v-42.381c0-7.305 5.943-13.248 13.249-13.248h7.172c7.305 0 13.249 5.943 13.249 13.248v42.381c0 7.306-5.943 13.249-13.249 13.249h-7.172c-7.306 0-13.249-5.943-13.249-13.249z"/></g></g></svg>