<svg xmlns="http://www.w3.org/2000/svg" version="1.1" xmlns:xlink="http://www.w3.org/1999/xlink" width="512" height="512" x="0" y="0" viewBox="0 0 512 512" style="enable-background:new 0 0 512 512" xml:space="preserve" class=""><g><path d="M488.387 174.885q-2.933-5.866-6.087-11.598l.032-.021c-.062-.093-.128-.182-.19-.273a338.251 338.251 0 0 0-145.028-139.38 78.636 78.636 0 0 0-105.5 105.502 338.7 338.7 0 0 0 38.594 60.248L31.328 406.527a46.825 46.825 0 1 0 66.145 66.147L313.93 234.569a338.252 338.252 0 0 0 57.112 39.588 79.269 79.269 0 0 0 23.237 10.854 78.637 78.637 0 0 0 94.107-110.126zM85.634 461.91a30.825 30.825 0 1 1-43.544-43.543l245.647-223.316 21.212 21.212zm240.023-251.567-32-32a8.001 8.001 0 0 0-11.038-.263l-.55.5a322.69 322.69 0 0 1-36.145-56.621 62.636 62.636 0 0 1 84.035-84.035 322.33 322.33 0 0 1 113.82 95.055 79.922 79.922 0 0 0-102.745 102.826q-8.374-6.269-16.336-13.08l1.221-1.343a8.001 8.001 0 0 0-.262-11.04zm136.686 44a62.551 62.551 0 0 1-72.302 11.733q-5.352-2.675-10.592-5.552a63.995 63.995 0 1 1 89.039-89.142q2.886 5.273 5.588 10.659a62.556 62.556 0 0 1-11.733 72.302z" data-name="Out line" fill="#ffffff" opacity="1" data-original="#000000"></path></g></svg>