<svg xmlns="http://www.w3.org/2000/svg" version="1.1" xmlns:xlink="http://www.w3.org/1999/xlink" width="512" height="512" x="0" y="0" viewBox="0 0 256 256" style="enable-background:new 0 0 512 512" xml:space="preserve"><g><path d="M202.265 129.02c-4.66-2.085-8.423-6.232-11.506-11.425a7.142 7.142 0 0 0 .434-1.68c.452-3.438-1.714-6.123-3.759-7.846.265-1.649.105-3.728-1.084-6.178-.22-.453-.736-1.147-1.436-1.944.894-1.567 1.78-3.884 1.085-6.235-.468-1.582-1.815-3.695-5.58-4.777-.003-.001-2.317-10.234-2.317-10.234-2.695-12.31-14.704-16.43-25.174-14.139-9.902 2.167-19.276 10.368-16.457 23.255 0 0 .943 4.306 1.31 6.031-3.84 2.106-3.45 6.815-3.025 10.119a8.875 8.875 0 0 0 1.156 3.4 8.103 8.103 0 0 0-.726 3.476c.051 2.644 1.312 4.84 3.673 6.529-1.078 1.66-1.586 3.53-1.427 5.462.208 2.535 1.564 4.781 3.71 6.34a38.95 38.95 0 0 1-.92 5.008c-2.89-5.073-6.037-9.79-8.922-13.925a47.637 47.637 0 0 1-1.994-3.106c-3.627-6.17-5.425-12.554-6.045-19.127 1.574-1.51 2.531-3.436 2.663-5.554a8.292 8.292 0 0 0-.65-3.755c3.7-3.286 2.756-9.277 2.78-9.295 2.314-1.71 3.69-4.181 3.981-7.147.185-1.889.748-7.637-2.895-9.707a4.84 4.84 0 0 0-1.68-.577l.428-1.935C130.64 47.59 121.3 38.686 110.65 36.33c-10.029-2.218-22.131 1.337-25.02 14.379 0 0-1.207 5.462-1.64 7.368-.75-.196-1.812-.236-3.061.415-1.9.99-3.81 3.48-4.09 5.332-.258 1.722.033 3.35.855 4.888-.077.093-2.772 3.03-1.276 6.917-1.357 1.115-6.012 2.991-3.172 9.735.264.607.595 1.202.978 1.786-5.77 9.735-15.54 15.26-25.832 21.078-15.088 8.528-30.69 17.347-31.389 40.25-.37 12.166 4.903 23.612 15.25 33.102 11.39 10.445 25.962 16.231 36.181 19.246 10.092 2.977 20.416 4.555 29.382 4.555 2.634 0 5.15-.137 7.51-.413 6.022-.707 11.48-1.904 16.363-3.573 17.774 38.404 67.773 27.584 67.945 27.532 22.116-5.4 46.898-22.72 49.13-48.043 2.67-30.3-18.103-43.633-36.5-51.864zm-17.518-15.918c.644.703 1.08 1.45.993 2.1-.116.86-1.78 5.377-23.21 9.855-1.773.37-12.843 1.653-16.5.487-1.837-.586-3.002-1.768-3.116-3.16-.074-.896.296-1.805 1.033-2.632 2.035.618 8.566 2.12 16.495 1.363 4.172-.185 19.803-2.825 24.305-8.013zm-30.643-43.167a20.885 20.885 0 0 1 4.446-.485c6.321 0 12.552 2.996 14.18 10.427 0 0 1.616 7.39 2.461 10.881-10.3 4.953-25.167 9.121-31.659 3.71-.494-2.38-1.688-7.827-1.688-7.827-2.023-9.245 4.7-15.052 12.26-16.706zm-13.886 29.031c.18.064.383.157.527.247 11.694 8.49 33.843-1.94 39.122-4.638.543.257.803.514.857.694.168.556-.42 1.845-1.086 2.728-12.62 8.38-30.052 11.375-36.769 8.343-2.153-.972-2.548-2.22-2.658-3.074-.329-2.566-.14-3.79.007-4.3zm.614 12.479c2.428 1.044 5.536 1.54 9.047 1.54 9.346 0 21.502-3.485 31.035-9.29.225.258 1.693 2.437.835 4.322-1.782 3.95-16.232 8.362-29.138 7.669-5.386-.395-10.833-1.846-11.78-4.241zM91 51.897c1.685-7.609 7.695-10.693 14.001-10.693 1.488 0 2.993.172 4.461.496 7.736 1.712 15.121 7.813 13.055 17.167 0 0-.797 3.608-1.13 5.15-7.841 4.697-23.262.035-32.27-3.693.52-2.262 1.883-8.427 1.883-8.427zm-8.736 12.871c.14-.297.504-.779.83-1.1 3.55 1.68 17.343 7.82 29.46 7.819 4.792 0 8.776-.648 13.837-4.018.164.446.428 1.623.17 4.268-.141 1.432-.705 2.467-1.777 3.259-3.089 2.283-10.272 2.493-19.71.576-16.155-3.28-23.061-7.762-22.81-10.804zm-.735 8.097c4.429 3.25 11.922 5.96 22.451 8.097 4.683.951 8.803 1.426 12.35 1.426 2.381 0 4.491-.223 6.35-.651-.093 1.28-.626 2.867-2.41 4.04-2.25 1.48-9.38 4.063-26.95-3.876-.035-.017-12.006-5.018-11.791-9.036zm-3.59 8.45a9.624 9.624 0 0 1 1.743-1.189c3.93 3.643 9.795 6.155 11.428 6.811 9.836 4.439 17.067 5.967 22.363 5.967 2.843 0 5.128-.441 6.958-1.109.008.112.344 2.457-3.267 3.557-3.557 1.141-9.243 1.954-21.734-1.916-12.41-3.844-15.993-7.925-17.024-10.015-.472-.957-.508-1.69-.468-2.106zm41.714 114.966c-4.442 1.495-9.435 2.575-14.968 3.224a59.446 59.446 0 0 1-6.897.378c-19.155 0-45.902-7.76-61.817-22.357-9.263-8.495-13.795-18.212-13.47-28.88.604-19.808 14.202-27.493 28.597-35.63 10.077-5.695 20.451-11.561 27.04-21.744 2.116 1.66 4.8 3.207 8.062 4.631-1.175 4.47-4.284 11.363-12.495 18.213-1.544 1.287-4.46 3.078-7.546 4.973-7.728 4.746-16.488 10.125-18.308 15.739l5.231 1.697c1.196-3.685 10.078-9.14 15.955-12.75 3.403-2.089 6.34-3.893 8.19-5.435 8.887-7.413 12.584-15.076 14.114-20.457.798.274 4.572 1.436 5.587 1.715-1.051 5.914-1.723 12.142-2.017 18.819-.123 2.812-.005 5.753.108 8.596.23 5.732.467 11.659-1.283 16.574l5.18 1.844c2.108-5.917 1.849-12.384 1.599-18.637-.114-2.856-.222-5.554-.109-8.136.277-6.316.907-12.202 1.885-17.787 2.385.468 4.605.762 6.672.867-.39 7.79.776 14.528 3.493 20.084 1.543 3.156 3.386 5.947 5.167 8.646 2.507 3.798 4.875 7.385 6.283 11.723l5.231-1.698c-1.638-5.048-4.325-9.118-6.924-13.055-1.763-2.671-3.428-5.194-4.816-8.032-2.358-4.82-3.335-10.812-2.92-17.858a24.762 24.762 0 0 0 3.592-.728c.864 6.504 2.842 12.905 6.494 19.118a53.222 53.222 0 0 0 2.226 3.466c3.84 5.505 7.643 11.398 10.759 17.427-.592.999-1.25 1.94-2.002 2.798-11.6 13.254-23.22 30.808-15.893 52.652zm113.632-15.88c-1.98 22.461-24.355 38.007-44.513 43.073-21.52 4.515-48.666-.479-59.934-20.201-10.571-18.502-7.327-35.256 10.847-56.022 3.738-4.27 5.767-9.852 6.687-16.025 2.818.472 6.244.27 7.04.239.57 6.447.42 16.83-4.318 26.835-.485 1.024-1.023 2.092-1.592 3.224-2.962 5.885-6.32 12.556-5.523 19.173l5.46-.657c-.598-4.97 2.363-10.853 4.976-16.044.584-1.162 1.136-2.259 1.65-3.342 5.281-11.152 5.497-22.462 4.86-29.592 2.455-.252 4.307-.533 4.728-.621.447-.094.884-.188 1.32-.282 1.964 8.067 5.259 23.12 4.583 30.846l5.479.48c.748-8.548-2.661-24.214-4.703-32.59a94.73 94.73 0 0 0 6.371-1.857c2.359 3.859 5.387 7.003 8.34 10.063 3.956 4.099 7.692 7.97 9.66 13.314l5.161-1.9c-2.367-6.43-6.686-10.906-10.863-15.233-2.603-2.698-5.1-5.29-7.068-8.266 2.075-.94 3.79-1.927 5.161-2.968 3.443 5.33 7.667 9.64 12.924 11.992 25.189 11.27 35.138 25.135 33.267 46.361z" fill="#ffffff" opacity="1" data-original="#000000"></path></g></svg>