<svg width="2543" height="1262" viewBox="0 0 2543 1262" fill="none" xmlns="http://www.w3.org/2000/svg">
<path d="M2130.72 678.89C2126.78 673.92 2122.44 669.31 2117.9 664.89C2064.98 613.47 2079.5 540.75 2088.35 511.46C2089.79 506.71 2084.51 502.78 2080.34 505.46C2034.32 535.01 1996.97 601.34 1996.97 601.34C1937.15 716.78 2085.12 786.74 2085.12 786.74C2099.11 797.41 2089.84 799.68 2089.84 799.68C1871.56 759.8 1553.57 480.65 1553.57 480.65C1469.29 403.52 1413.52 315.85 1376.76 236.7C1375.85 234.38 1318.29 86.76 1310.42 4.70001C1310.32 3.66001 1310.26 2.63003 1310.23 1.59003L1310.22 1.34003C1310.2 0.600027 1309.59 0 1308.84 0H1308.53C1307.84 0 1307.26 0.510012 1307.19 1.20001C1305.19 21.13 1274.99 284.86 1061.04 480.64C1061.04 480.64 743.057 759.79 524.767 799.67C524.767 799.67 515.497 797.4 529.487 786.73C529.487 786.73 677.457 716.77 617.637 601.33C617.637 601.33 580.277 535 534.267 505.45C530.097 502.77 524.817 506.7 526.257 511.45C535.107 540.73 549.627 613.46 496.707 664.88C492.157 669.3 487.827 673.92 483.887 678.88C460.207 708.73 400.437 799.43 498.007 853.2C498.007 853.2 594.027 907.25 829.627 765.05C829.627 765.05 1158.8 599.8 1276.58 335.57H1276.59L1276.66 335.4C1285.17 316.3 1292.57 296.68 1298.66 276.56L1307.3 253.45L1316.5 278.37C1321.88 295.89 1328.26 313.04 1335.49 329.8L1335.54 329.95L1335.55 329.94C1451.12 597.46 1784.97 765.05 1784.97 765.05C2020.57 907.25 2116.59 853.2 2116.59 853.2C2214.18 799.44 2154.4 708.74 2130.72 678.89Z" fill="#F6A709"/>
<path d="M160.74 1261.7C114.28 1261.7 75.88 1248.67 46.61 1222.98C15.69 1195.95 0 1160.97 0 1119.03C0 1085.99 9.82 1056.95 29.19 1032.71C59.31 994.94 104.82 975.78 164.48 975.78C203.71 975.78 242.17 986.15 278.79 1006.61C279.54 1007.02 280.11 1007.31 280.53 1007.5C281.4 1006.85 283.05 1005.42 285.83 1002.35L288.9 998.96L303.53 1006.98L268.33 1064.98L254.15 1056.68L255.48 1052.3C256.8 1047.95 257 1045.77 257 1044.86C256.97 1044.74 255.88 1040.02 235.12 1030.09C212.93 1019.38 188.37 1013.96 162.11 1013.96C127.03 1013.96 98.28 1023.59 76.66 1042.58C54.57 1062.04 43.83 1086.56 43.83 1117.56C43.83 1148.44 55.02 1173.35 78.06 1193.72C100.21 1213.48 127.95 1223.5 160.54 1223.5C192.53 1223.5 221.13 1214.19 245.54 1195.83C257.79 1186.62 260.09 1182.76 260.5 1181.83C260.38 1181.29 259.89 1179.57 257.88 1175.83L255.57 1171.53L268.56 1161.38L310.97 1212.19L297.6 1222.78L293.97 1219.57C291.22 1217.14 289.66 1216.44 289.04 1216.23C288.47 1216.5 287.18 1217.22 284.82 1219.04C272.54 1228.16 262.24 1235.07 254.15 1239.63C245.93 1244.27 236.82 1248.25 227.06 1251.47C207.04 1258.26 184.72 1261.7 160.74 1261.7Z" fill="#7A1935"/>
<path d="M595.35 1257.04V1240.55L599.69 1239.42C604.85 1238.08 606.28 1236.65 606.59 1236.24C606.81 1235.95 607.93 1234.21 607.93 1228.33V1133.36H435.67V1228.33C435.67 1234.27 436.76 1236.03 436.98 1236.32C437.19 1236.6 438.48 1238.04 443.88 1239.41L448.25 1240.52V1257.04H380.62V1240.52L384.99 1239.41C390.38 1238.05 391.68 1236.6 391.89 1236.32C392.11 1236.03 393.2 1234.26 393.2 1228.33V1009.14C393.2 1003.37 392.13 1001.5 391.81 1001.07C391.51 1000.67 390.13 999.26 385.09 998.09L380.62 997.04V980.44H448.25V996.93L443.91 998.06C438.75 999.4 437.32 1000.83 437.01 1001.24C436.78 1001.53 435.67 1003.27 435.67 1009.15V1096.55H607.94V1009.15C607.94 1003.38 606.87 1001.51 606.55 1001.08C606.25 1000.68 604.87 999.27 599.83 998.1L595.36 997.05V980.45H662.99V996.94L658.65 998.07C653.49 999.41 652.06 1000.84 651.75 1001.25C651.52 1001.54 650.41 1003.28 650.41 1009.16V1228.35C650.41 1233.94 651.47 1235.79 651.8 1236.22C652.12 1236.64 653.54 1238.11 658.66 1239.44L663 1240.56V1257.05H595.35V1257.04Z" fill="#7A1935"/>
<path d="M955.53 1257.04V1239.97L960.55 1239.29C961.62 1239.15 966.97 1238.33 966.97 1236.49C966.96 1236.32 966.74 1234.25 963.22 1226.98L942.76 1182.68H806.58L784.54 1229.63C782.31 1234.41 781.86 1236.46 781.77 1237.07C782.2 1237.44 783.79 1238.53 788.55 1239.32L793.39 1240.13V1257.05H721.93V1240.14L726.76 1239.33C730.84 1238.64 733.88 1237.27 735.8 1235.23C737.13 1233.82 740.21 1229.63 745.85 1217.38L844.18 1007.86C846.4 1003.11 846.97 1001.03 847.12 1000.29C846.7 999.91 845.38 998.98 841.86 998.06L837.54 996.93V980.45H914.41V996.67L910.39 997.97C906.56 999.2 905.24 1000.31 904.85 1000.73C905.06 1001.5 905.72 1003.48 907.77 1007.86L1001.96 1209.78C1011.06 1229.28 1014.01 1233.67 1014.86 1234.66C1015.36 1235.24 1017.66 1237.3 1026.39 1239.41L1030.82 1240.48V1257.04H955.53ZM926.07 1145.86L874.69 1034.54L823.37 1145.86H926.07Z" fill="#7A1935"/>
<path d="M1304.68 1257.04V1240.54L1309.03 1239.42C1312.55 1238.51 1313.73 1237.43 1313.73 1237.07C1313.72 1237.06 1313.34 1234.48 1306.85 1226.84L1139.32 1035.25V1228.33C1139.32 1233.92 1140.38 1235.77 1140.71 1236.2C1141.03 1236.62 1142.45 1238.09 1147.57 1239.42L1151.91 1240.54V1257.03H1087.04V1240.51L1091.41 1239.4C1096.81 1238.04 1098.1 1236.59 1098.31 1236.31C1098.53 1236.02 1099.62 1234.25 1099.62 1228.32V1009.13C1099.62 1003.36 1098.55 1001.49 1098.23 1001.06C1097.93 1000.66 1096.55 999.25 1091.51 998.08L1087.04 997.03V980.43H1175.74V996.6L1171.79 997.93C1168.21 999.13 1166.72 1000.41 1166.52 1001.04C1166.75 1001.76 1167.99 1004.63 1174.33 1011.95L1325.95 1186.97V1009.14C1325.95 1003.37 1324.88 1001.5 1324.55 1001.07C1324.25 1000.67 1322.87 999.26 1317.83 998.09L1313.36 997.04V980.44H1378.23V997.04L1373.76 998.09C1368.73 999.27 1367.35 1000.67 1367.04 1001.08C1366.71 1001.52 1365.65 1003.38 1365.65 1009.15V1228.34C1365.65 1234.22 1366.77 1235.96 1366.99 1236.25C1367.31 1236.66 1368.74 1238.1 1373.89 1239.43L1378.23 1240.55V1257.04H1304.68Z" fill="#7A1935"/>
<path d="M1623.29 1261.7C1575.04 1261.7 1535.47 1248.89 1505.69 1223.63C1488.94 1209.38 1476.1 1191.87 1467.53 1171.57C1460.57 1154.86 1457.04 1137.06 1457.04 1118.64C1457.04 1091.34 1464.63 1065.85 1479.61 1042.87C1495.96 1017.98 1519.39 999.59 1549.25 988.2C1569.99 980.35 1594.73 976.18 1622.81 975.78C1671.4 975.78 1711.16 988.58 1741.07 1013.84C1757.95 1027.95 1770.81 1045.49 1779.26 1065.95C1786.21 1082.76 1789.73 1101.07 1789.73 1120.39C1789.73 1146.67 1782.06 1171.59 1766.94 1194.45C1750.34 1219.7 1726.98 1238.15 1697.5 1249.29C1675.7 1257.52 1650.73 1261.7 1623.29 1261.7ZM1622.88 1013.97C1584.37 1013.97 1553.56 1024.67 1531.32 1045.77C1510.84 1065.25 1500.88 1089.09 1500.88 1118.64C1500.88 1148.32 1510.84 1172.23 1531.33 1191.71C1553.44 1212.81 1584.38 1223.51 1623.29 1223.51C1662.33 1223.51 1693.41 1212.81 1715.65 1191.71C1736 1172.24 1745.9 1148.84 1745.9 1120.2C1745.9 1089.54 1735.74 1064.51 1715.69 1045.81C1703.53 1034.54 1690.36 1026.54 1676.55 1022.04C1660.92 1016.81 1642.87 1014.1 1622.88 1013.97Z" fill="#7A1935"/>
<path d="M1938.35 1257.04V1240.55L1942.69 1239.42C1947.84 1238.08 1949.28 1236.65 1949.59 1236.24C1949.81 1235.95 1950.93 1234.21 1950.93 1228.33V1017.26H1865.88C1859.94 1017.26 1858.01 1018.32 1857.56 1018.64C1857.28 1018.84 1855.82 1020.1 1854.61 1025.22L1853.56 1029.68H1836.89V968H1853.56L1854.62 972.46C1855.83 977.56 1857.3 978.84 1857.58 979.04C1858.03 979.37 1859.96 980.43 1865.89 980.43H2078.45C2084.37 980.43 2086.31 979.37 2086.76 979.04C2087.04 978.84 2088.51 977.56 2089.72 972.46L2090.78 968H2107.45V1029.68H2090.78L2089.73 1025.22C2088.52 1020.1 2087.06 1018.84 2086.78 1018.64C2086.33 1018.32 2084.39 1017.26 2078.46 1017.26H1993.41V1228.33C1993.41 1233.92 1994.47 1235.77 1994.8 1236.2C1995.12 1236.62 1996.54 1238.09 2001.66 1239.42L2006 1240.54V1257.03H1938.35V1257.04Z" fill="#7A1935"/>
<path d="M2343.56 1257.04V1239.97L2348.58 1239.29C2349.65 1239.15 2355 1238.33 2355 1236.49C2354.99 1236.32 2354.77 1234.25 2351.25 1226.98L2330.79 1182.68H2194.61L2172.57 1229.63C2170.34 1234.41 2169.89 1236.46 2169.8 1237.07C2170.23 1237.44 2171.82 1238.53 2176.58 1239.32L2181.42 1240.13V1257.05H2109.96V1240.14L2114.79 1239.33C2118.87 1238.64 2121.91 1237.27 2123.83 1235.23C2125.16 1233.82 2128.24 1229.63 2133.88 1217.38L2232.21 1007.86C2234.43 1003.11 2235 1001.03 2235.15 1000.29C2234.73 999.91 2233.41 998.98 2229.89 998.06L2225.57 996.92V980.44H2302.44V996.66L2298.43 997.96C2294.6 999.19 2293.28 1000.3 2292.89 1000.72C2293.1 1001.49 2293.76 1003.47 2295.81 1007.85L2390 1209.77C2399.1 1229.27 2402.05 1233.66 2402.9 1234.65C2403.4 1235.23 2405.7 1237.29 2414.43 1239.4L2418.86 1240.47V1257.03H2343.56V1257.04ZM2314.09 1145.86L2262.71 1034.54L2211.39 1145.86H2314.09Z" fill="#7A1935"/>
<path d="M2475.05 1257.04V1240.52L2479.42 1239.41C2484.82 1238.05 2486.11 1236.6 2486.32 1236.33C2486.54 1236.04 2487.63 1234.27 2487.63 1228.34V1009.15C2487.63 1003.38 2486.56 1001.51 2486.24 1001.08C2485.94 1000.68 2484.56 999.27 2479.52 998.1L2475.05 997.05V980.45H2542.68V996.94L2538.34 998.07C2533.18 999.41 2531.75 1000.84 2531.44 1001.25C2531.21 1001.54 2530.09 1003.28 2530.09 1009.16V1228.35C2530.09 1234.29 2531.18 1236.05 2531.4 1236.34C2531.61 1236.62 2532.9 1238.06 2538.3 1239.43L2542.67 1240.54V1257.06H2475.05V1257.04Z" fill="#7A1935"/>
</svg>
