<svg width="2543" height="1485" viewBox="0 0 2543 1485" fill="none" xmlns="http://www.w3.org/2000/svg">
<path d="M2146.18 678.89C2142.24 673.92 2137.9 669.31 2133.36 664.89C2080.44 613.47 2094.96 540.75 2103.81 511.46C2105.25 506.71 2099.97 502.78 2095.8 505.46C2049.78 535.01 2012.43 601.34 2012.43 601.34C1952.61 716.78 2100.58 786.74 2100.58 786.74C2114.57 797.41 2105.3 799.68 2105.3 799.68C1887.02 759.8 1569.03 480.65 1569.03 480.65C1484.75 403.52 1428.98 315.85 1392.22 236.7C1391.31 234.38 1333.75 86.76 1325.88 4.70001C1325.78 3.66001 1325.72 2.63003 1325.69 1.59003L1325.68 1.34003C1325.66 0.600027 1325.05 0 1324.3 0H1323.99C1323.3 0 1322.72 0.510012 1322.65 1.20001C1320.65 21.13 1290.45 284.86 1076.5 480.64C1076.5 480.64 758.52 759.79 540.23 799.67C540.23 799.67 530.96 797.4 544.95 786.73C544.95 786.73 692.92 716.77 633.1 601.33C633.1 601.33 595.74 535 549.73 505.45C545.56 502.77 540.28 506.7 541.72 511.45C550.57 540.73 565.09 613.46 512.17 664.88C507.62 669.3 503.29 673.92 499.35 678.88C475.67 708.73 415.9 799.43 513.47 853.2C513.47 853.2 609.49 907.25 845.09 765.05C845.09 765.05 1174.26 599.8 1292.04 335.57H1292.05L1292.12 335.4C1300.63 316.3 1308.03 296.68 1314.12 276.56L1322.76 253.45L1331.96 278.37C1337.34 295.89 1343.72 313.04 1350.95 329.8L1351 329.95L1351.01 329.94C1466.58 597.46 1800.43 765.05 1800.43 765.05C2036.03 907.25 2132.05 853.2 2132.05 853.2C2229.64 799.44 2169.86 708.74 2146.18 678.89Z" fill="#EBBD21"/>
<path d="M2383.05 1280.47H239.04V1307.23H2383.05V1280.47Z" fill="#EBBD21"/>
<path d="M160.74 1230.22C114.28 1230.22 75.88 1217.19 46.61 1191.5C15.69 1164.47 0 1129.49 0 1087.55C0 1054.51 9.82 1025.47 29.19 1001.23C59.31 963.46 104.82 944.3 164.48 944.3C203.71 944.3 242.17 954.67 278.79 975.13C279.54 975.54 280.11 975.83 280.53 976.02C281.4 975.37 283.05 973.94 285.83 970.87L288.9 967.48L303.53 975.5L268.33 1033.5L254.15 1025.2L255.48 1020.82C256.8 1016.47 257 1014.29 257 1013.38C256.97 1013.26 255.88 1008.54 235.12 998.61C212.93 987.9 188.37 982.48 162.11 982.48C127.03 982.48 98.28 992.11 76.66 1011.1C54.57 1030.56 43.83 1055.08 43.83 1086.08C43.83 1116.96 55.02 1141.87 78.06 1162.24C100.21 1182 127.95 1192.02 160.54 1192.02C192.53 1192.02 221.13 1182.71 245.54 1164.35C257.79 1155.14 260.09 1151.28 260.5 1150.35C260.38 1149.81 259.89 1148.09 257.88 1144.35L255.57 1140.05L268.56 1129.9L310.97 1180.71L297.6 1191.3L293.97 1188.09C291.22 1185.66 289.66 1184.96 289.04 1184.75C288.47 1185.02 287.18 1185.74 284.82 1187.56C272.54 1196.68 262.24 1203.59 254.15 1208.15C245.93 1212.79 236.82 1216.77 227.06 1219.99C207.04 1226.78 184.72 1230.22 160.74 1230.22Z" fill="white"/>
<path d="M595.35 1225.56V1209.07L599.69 1207.94C604.85 1206.6 606.28 1205.17 606.59 1204.76C606.81 1204.47 607.93 1202.73 607.93 1196.85V1101.88H435.67V1196.85C435.67 1202.79 436.76 1204.55 436.98 1204.84C437.19 1205.12 438.48 1206.56 443.88 1207.93L448.25 1209.04V1225.56H380.62V1209.04L384.99 1207.93C390.38 1206.57 391.68 1205.12 391.89 1204.84C392.11 1204.55 393.2 1202.78 393.2 1196.85V977.66C393.2 971.89 392.13 970.02 391.81 969.59C391.51 969.19 390.13 967.78 385.09 966.61L380.62 965.56V948.96H448.25V965.45L443.91 966.58C438.75 967.92 437.32 969.35 437.01 969.76C436.78 970.05 435.67 971.79 435.67 977.67V1065.07H607.94V977.67C607.94 971.9 606.87 970.03 606.55 969.6C606.25 969.2 604.87 967.79 599.83 966.62L595.36 965.57V948.97H662.99V965.46L658.65 966.59C653.49 967.93 652.06 969.36 651.75 969.77C651.52 970.06 650.41 971.8 650.41 977.68V1196.87C650.41 1202.46 651.47 1204.31 651.8 1204.74C652.12 1205.16 653.54 1206.63 658.66 1207.96L663 1209.08V1225.57H595.35V1225.56Z" fill="white"/>
<path d="M955.53 1225.56V1208.49L960.55 1207.81C961.62 1207.67 966.97 1206.85 966.97 1205.01C966.96 1204.84 966.74 1202.77 963.22 1195.5L942.76 1151.2H806.58L784.54 1198.15C782.31 1202.93 781.86 1204.98 781.77 1205.59C782.2 1205.96 783.79 1207.05 788.55 1207.84L793.39 1208.65V1225.57H721.93V1208.66L726.76 1207.85C730.84 1207.16 733.88 1205.79 735.8 1203.75C737.13 1202.34 740.21 1198.15 745.85 1185.9L844.18 976.38C846.4 971.63 846.97 969.55 847.12 968.81C846.7 968.43 845.38 967.5 841.86 966.58L837.54 965.45V948.97H914.41V965.19L910.39 966.49C906.56 967.72 905.24 968.83 904.85 969.25C905.06 970.02 905.72 972 907.77 976.38L1001.96 1178.3C1011.06 1197.8 1014.01 1202.19 1014.86 1203.18C1015.36 1203.76 1017.66 1205.82 1026.39 1207.93L1030.82 1209V1225.56H955.53ZM926.07 1114.38L874.69 1003.06L823.37 1114.38H926.07Z" fill="white"/>
<path d="M1304.68 1225.56V1209.06L1309.03 1207.94C1312.55 1207.03 1313.73 1205.95 1313.73 1205.59C1313.72 1205.58 1313.34 1203 1306.85 1195.36L1139.32 1003.77V1196.85C1139.32 1202.44 1140.38 1204.29 1140.71 1204.72C1141.03 1205.14 1142.45 1206.61 1147.57 1207.94L1151.91 1209.06V1225.55H1087.04V1209.03L1091.41 1207.92C1096.81 1206.56 1098.1 1205.11 1098.31 1204.83C1098.53 1204.54 1099.62 1202.77 1099.62 1196.84V977.65C1099.62 971.88 1098.55 970.01 1098.23 969.58C1097.93 969.18 1096.55 967.77 1091.51 966.6L1087.04 965.55V948.95H1175.74V965.12L1171.79 966.45C1168.21 967.65 1166.72 968.93 1166.52 969.56C1166.75 970.28 1167.99 973.15 1174.33 980.47L1325.95 1155.49V977.66C1325.95 971.89 1324.88 970.02 1324.55 969.59C1324.25 969.19 1322.87 967.78 1317.83 966.61L1313.36 965.56V948.96H1378.23V965.56L1373.76 966.61C1368.73 967.79 1367.35 969.19 1367.04 969.6C1366.71 970.04 1365.65 971.9 1365.65 977.67V1196.86C1365.65 1202.74 1366.77 1204.48 1366.99 1204.77C1367.31 1205.18 1368.74 1206.62 1373.89 1207.95L1378.23 1209.07V1225.56H1304.68Z" fill="white"/>
<path d="M1623.29 1230.22C1575.04 1230.22 1535.47 1217.41 1505.69 1192.15C1488.94 1177.9 1476.1 1160.39 1467.53 1140.09C1460.57 1123.38 1457.04 1105.58 1457.04 1087.16C1457.04 1059.86 1464.63 1034.37 1479.61 1011.39C1495.96 986.5 1519.39 968.11 1549.25 956.72C1569.99 948.87 1594.73 944.7 1622.81 944.3C1671.4 944.3 1711.16 957.1 1741.07 982.36C1757.95 996.47 1770.81 1014.01 1779.26 1034.47C1786.21 1051.28 1789.73 1069.59 1789.73 1088.91C1789.73 1115.19 1782.06 1140.11 1766.94 1162.97C1750.34 1188.22 1726.98 1206.67 1697.5 1217.81C1675.7 1226.04 1650.73 1230.22 1623.29 1230.22ZM1622.88 982.49C1584.37 982.49 1553.56 993.19 1531.32 1014.29C1510.84 1033.77 1500.88 1057.61 1500.88 1087.16C1500.88 1116.84 1510.84 1140.75 1531.33 1160.23C1553.44 1181.33 1584.38 1192.03 1623.29 1192.03C1662.33 1192.03 1693.41 1181.33 1715.65 1160.23C1736 1140.76 1745.9 1117.36 1745.9 1088.72C1745.9 1058.06 1735.74 1033.03 1715.69 1014.33C1703.53 1003.06 1690.36 995.06 1676.55 990.56C1660.92 985.33 1642.87 982.62 1622.88 982.49Z" fill="white"/>
<path d="M1938.35 1225.56V1209.07L1942.69 1207.94C1947.84 1206.6 1949.28 1205.17 1949.59 1204.76C1949.81 1204.47 1950.93 1202.73 1950.93 1196.85V985.78H1865.88C1859.94 985.78 1858.01 986.84 1857.56 987.16C1857.28 987.36 1855.82 988.62 1854.61 993.74L1853.56 998.2H1836.89V936.52H1853.56L1854.62 940.98C1855.83 946.08 1857.3 947.36 1857.58 947.56C1858.03 947.89 1859.96 948.95 1865.89 948.95H2078.45C2084.37 948.95 2086.31 947.89 2086.76 947.56C2087.04 947.36 2088.51 946.08 2089.72 940.98L2090.78 936.52H2107.45V998.2H2090.78L2089.73 993.74C2088.52 988.62 2087.06 987.36 2086.78 987.16C2086.33 986.84 2084.39 985.78 2078.46 985.78H1993.41V1196.85C1993.41 1202.44 1994.47 1204.29 1994.8 1204.72C1995.12 1205.14 1996.54 1206.61 2001.66 1207.94L2006 1209.06V1225.55H1938.35V1225.56Z" fill="white"/>
<path d="M2343.56 1225.56V1208.49L2348.58 1207.81C2349.65 1207.67 2355 1206.85 2355 1205.01C2354.99 1204.84 2354.77 1202.77 2351.25 1195.5L2330.79 1151.2H2194.61L2172.57 1198.15C2170.34 1202.93 2169.89 1204.98 2169.8 1205.59C2170.23 1205.96 2171.82 1207.05 2176.58 1207.84L2181.42 1208.65V1225.57H2109.96V1208.66L2114.79 1207.85C2118.87 1207.16 2121.91 1205.79 2123.83 1203.75C2125.16 1202.34 2128.24 1198.15 2133.88 1185.9L2232.21 976.38C2234.43 971.63 2235 969.55 2235.15 968.81C2234.73 968.43 2233.41 967.5 2229.89 966.58L2225.57 965.44V948.96H2302.44V965.18L2298.43 966.48C2294.6 967.71 2293.28 968.82 2292.89 969.24C2293.1 970.01 2293.76 971.99 2295.81 976.37L2390 1178.29C2399.1 1197.79 2402.05 1202.18 2402.9 1203.17C2403.4 1203.75 2405.7 1205.81 2414.43 1207.92L2418.86 1208.99V1225.55H2343.56V1225.56ZM2314.09 1114.38L2262.71 1003.06L2211.39 1114.38H2314.09Z" fill="white"/>
<path d="M2475.05 1225.56V1209.04L2479.42 1207.93C2484.82 1206.57 2486.11 1205.12 2486.32 1204.85C2486.54 1204.56 2487.63 1202.79 2487.63 1196.86V977.67C2487.63 971.9 2486.56 970.03 2486.24 969.6C2485.94 969.2 2484.56 967.79 2479.52 966.62L2475.05 965.57V948.97H2542.68V965.46L2538.34 966.59C2533.18 967.93 2531.75 969.36 2531.44 969.77C2531.21 970.06 2530.09 971.8 2530.09 977.68V1196.87C2530.09 1202.81 2531.18 1204.57 2531.4 1204.86C2531.61 1205.14 2532.9 1206.58 2538.3 1207.95L2542.67 1209.06V1225.58H2475.05V1225.56Z" fill="white"/>
<path d="M342.7 1434.76C341.9 1419.55 340.93 1401.27 341.09 1387.68H340.61C336.91 1400.46 332.4 1414.05 326.93 1429.1L307.77 1482.01H297.15L279.6 1430.07C274.45 1414.7 270.1 1400.62 267.04 1387.68H266.72C266.4 1401.27 265.59 1419.56 264.63 1435.9L261.73 1482.66H248.37L255.94 1373.61H273.81L292.32 1426.36C296.83 1439.79 300.53 1451.76 303.27 1463.09H303.75C306.49 1452.09 310.35 1440.11 315.18 1426.36L334.5 1373.61H352.37L359.13 1482.66H345.44L342.7 1434.76Z" fill="white"/>
<path d="M405.96 1448.35L394.69 1482.65H380.2L417.06 1373.6H433.96L470.98 1482.65H456.01L444.42 1448.35H405.96ZM441.53 1437.35L430.91 1405.96C428.5 1398.84 426.89 1392.37 425.28 1386.06H424.96C423.35 1392.53 421.58 1399.17 419.49 1405.8L408.87 1437.35H441.53Z" fill="white"/>
<path d="M494.32 1465.51C500.6 1469.39 509.77 1472.63 519.43 1472.63C533.76 1472.63 542.13 1465.03 542.13 1454.02C542.13 1443.83 536.34 1438 521.69 1432.34C503.98 1426.03 493.04 1416.81 493.04 1401.44C493.04 1384.45 507.04 1371.83 528.13 1371.83C539.24 1371.83 547.29 1374.42 552.11 1377.17L548.25 1388.66C544.71 1386.72 537.47 1383.48 527.65 1383.48C512.84 1383.48 507.21 1392.38 507.21 1399.82C507.21 1410.01 513.81 1415.03 528.78 1420.85C547.13 1427.97 556.47 1436.87 556.47 1452.89C556.47 1469.72 544.08 1484.28 518.48 1484.28C508.02 1484.28 496.59 1481.21 490.79 1477.32L494.32 1465.51Z" fill="white"/>
<path d="M583.01 1465.51C589.29 1469.39 598.46 1472.63 608.12 1472.63C622.45 1472.63 630.82 1465.03 630.82 1454.02C630.82 1443.83 625.03 1438 610.38 1432.34C592.67 1426.03 581.73 1416.81 581.73 1401.44C581.73 1384.45 595.73 1371.83 616.82 1371.83C627.93 1371.83 635.98 1374.42 640.8 1377.17L636.94 1388.66C633.4 1386.72 626.15 1383.48 616.34 1383.48C601.53 1383.48 595.9 1392.38 595.9 1399.82C595.9 1410.01 602.5 1415.03 617.47 1420.85C635.82 1427.97 645.16 1436.87 645.16 1452.89C645.16 1469.72 632.76 1484.28 607.17 1484.28C596.71 1484.28 585.28 1481.21 579.48 1477.32L583.01 1465.51Z" fill="white"/>
<path d="M691.18 1448.35L679.91 1482.65H665.42L702.28 1373.6H719.18L756.2 1482.65H741.24L729.65 1448.35H691.18ZM726.76 1437.35L716.14 1405.96C713.73 1398.84 712.12 1392.37 710.51 1386.06H710.19C708.58 1392.53 706.81 1399.17 704.72 1405.8L694.1 1437.35H726.76Z" fill="white"/>
<path d="M861.65 1477.8C855.37 1480.07 842.98 1483.79 828.33 1483.79C811.91 1483.79 798.39 1479.58 787.77 1469.39C778.43 1460.33 772.64 1445.77 772.64 1428.78C772.8 1396.26 795.01 1372.47 831.39 1372.47C843.95 1372.47 853.76 1375.22 858.43 1377.49L855.05 1388.98C849.26 1386.39 842.01 1384.29 831.07 1384.29C804.67 1384.29 787.45 1400.79 787.45 1428.14C787.45 1455.81 804.03 1472.15 829.3 1472.15C838.48 1472.15 844.75 1470.86 847.97 1469.24V1436.72H825.92V1425.4H861.66V1477.8H861.65Z" fill="white"/>
<path d="M948.56 1431.53H906.39V1470.84H953.39V1482.65H892.38V1373.6H950.97V1385.41H906.38V1419.87H948.55V1431.53H948.56Z" fill="white"/>
<path d="M1092.3 1482.66C1089.24 1479.59 1086.34 1476.51 1082.16 1471.98C1072.82 1480.72 1062.36 1484.44 1050.45 1484.44C1029.36 1484.44 1017.13 1470.2 1017.13 1453.86C1017.13 1438.97 1025.98 1428.78 1038.38 1421.98V1421.49C1032.75 1414.37 1029.37 1406.44 1029.37 1398.68C1029.37 1385.41 1038.87 1371.82 1056.9 1371.82C1070.42 1371.82 1080.88 1380.88 1080.88 1394.96C1080.88 1406.45 1074.28 1415.51 1057.06 1424.08V1424.57C1066.24 1435.25 1076.54 1447.22 1083.46 1454.99C1088.45 1447.38 1091.83 1436.87 1093.92 1423.12H1106.8C1103.9 1440.27 1099.23 1453.86 1091.19 1463.41C1096.98 1469.56 1102.62 1475.71 1109.06 1482.66H1092.3ZM1075.24 1463.89C1068.8 1456.77 1056.73 1443.5 1044.66 1429.59C1038.87 1433.31 1030.66 1440.27 1030.66 1451.76C1030.66 1464.22 1039.84 1473.77 1052.87 1473.77C1062.2 1473.76 1070.09 1469.55 1075.24 1463.89ZM1042.24 1397.39C1042.24 1405.16 1045.78 1411.14 1050.45 1416.97C1061.4 1410.66 1068.48 1404.84 1068.48 1395.61C1068.48 1388.98 1064.78 1381.53 1055.92 1381.53C1046.91 1381.53 1042.24 1388.97 1042.24 1397.39Z" fill="white"/>
<path d="M1192.09 1448.35L1180.82 1482.65H1166.34L1203.2 1373.6H1220.1L1257.12 1482.65H1242.15L1230.56 1448.35H1192.09ZM1227.67 1437.35L1217.05 1405.96C1214.64 1398.84 1213.03 1392.37 1211.42 1386.06H1211.1C1209.49 1392.53 1207.72 1399.17 1205.63 1405.8L1195.01 1437.35H1227.67Z" fill="white"/>
<path d="M1282.39 1375.06C1289.47 1373.6 1299.61 1372.8 1309.27 1372.8C1324.24 1372.8 1333.9 1375.55 1340.66 1381.7C1346.13 1386.55 1349.19 1394 1349.19 1402.41C1349.19 1416.81 1340.18 1426.36 1328.75 1430.24V1430.73C1337.12 1433.64 1342.11 1441.41 1344.69 1452.74C1348.23 1467.95 1350.81 1478.47 1353.06 1482.67H1338.57C1336.8 1479.6 1334.39 1470.21 1331.33 1456.62C1328.11 1441.57 1322.32 1435.91 1309.6 1435.42H1296.4V1482.67H1282.4V1375.06H1282.39ZM1296.4 1424.73H1310.73C1325.7 1424.73 1335.2 1416.48 1335.2 1404.02C1335.2 1389.94 1325.06 1383.79 1310.25 1383.63C1303.49 1383.63 1298.66 1384.28 1296.41 1384.92V1424.73H1296.4Z" fill="white"/>
<path d="M1471.53 1427C1471.53 1464.54 1448.83 1484.44 1421.15 1484.44C1392.5 1484.44 1372.38 1462.11 1372.38 1429.1C1372.38 1394.48 1393.79 1371.82 1422.76 1371.82C1452.37 1371.82 1471.53 1394.64 1471.53 1427ZM1387.34 1428.78C1387.34 1452.08 1399.9 1472.95 1421.95 1472.95C1444.16 1472.95 1456.72 1452.4 1456.72 1427.65C1456.72 1405.97 1445.45 1383.32 1422.11 1383.32C1398.93 1383.31 1387.34 1404.83 1387.34 1428.78Z" fill="white"/>
<path d="M1590.48 1434.76C1589.68 1419.55 1588.71 1401.27 1588.87 1387.68H1588.39C1584.69 1400.46 1580.18 1414.05 1574.71 1429.1L1555.56 1482.01H1544.94L1527.39 1430.07C1522.24 1414.7 1517.89 1400.62 1514.83 1387.68H1514.51C1514.19 1401.27 1513.38 1419.56 1512.42 1435.9L1509.52 1482.66H1496.16L1503.73 1373.61H1521.6L1540.11 1426.36C1544.62 1439.79 1548.32 1451.76 1551.06 1463.09H1551.54C1554.28 1452.09 1558.14 1440.11 1562.97 1426.36L1582.29 1373.61H1600.16L1606.92 1482.66H1593.24L1590.48 1434.76Z" fill="white"/>
<path d="M1653.73 1448.35L1642.46 1482.65H1627.97L1664.83 1373.6H1681.73L1718.75 1482.65H1703.78L1692.19 1448.35H1653.73ZM1689.31 1437.35L1678.69 1405.96C1676.28 1398.84 1674.67 1392.37 1673.06 1386.06H1672.74C1671.13 1392.53 1669.36 1399.17 1667.27 1405.8L1656.65 1437.35H1689.31Z" fill="white"/>
<path d="M1752.24 1385.58H1719.24V1373.61H1799.56V1385.58H1766.4V1482.66H1752.23V1385.58H1752.24Z" fill="white"/>
<path d="M1834.98 1373.6V1419.23H1887.46V1373.6H1901.63V1482.65H1887.46V1431.52H1834.98V1482.65H1820.98V1373.6H1834.98Z" fill="white"/>
<path d="M1991.43 1431.53H1949.26V1470.84H1996.26V1482.65H1935.25V1373.6H1993.84V1385.41H1949.25V1419.87H1991.42V1431.53H1991.43Z" fill="white"/>
<path d="M2023.78 1375.06C2030.86 1373.6 2041 1372.8 2050.66 1372.8C2065.63 1372.8 2075.29 1375.55 2082.05 1381.7C2087.52 1386.55 2090.58 1394 2090.58 1402.41C2090.58 1416.81 2081.57 1426.36 2070.14 1430.24V1430.73C2078.51 1433.64 2083.5 1441.41 2086.08 1452.74C2089.62 1467.95 2092.2 1478.47 2094.45 1482.67H2079.96C2078.19 1479.6 2075.78 1470.21 2072.72 1456.62C2069.5 1441.57 2063.71 1435.91 2050.99 1435.42H2037.79V1482.67H2023.79V1375.06H2023.78ZM2037.79 1424.73H2052.12C2067.09 1424.73 2076.59 1416.48 2076.59 1404.02C2076.59 1389.94 2066.45 1383.79 2051.64 1383.63C2044.88 1383.63 2040.05 1384.28 2037.8 1384.92V1424.73H2037.79Z" fill="white"/>
<path d="M2138.06 1448.35L2126.79 1482.65H2112.3L2149.16 1373.6H2166.06L2203.08 1482.65H2188.11L2176.52 1448.35H2138.06ZM2173.64 1437.35L2163.02 1405.96C2160.61 1398.84 2159 1392.37 2157.39 1386.06H2157.07C2155.46 1392.53 2153.69 1399.17 2151.6 1405.8L2140.98 1437.35H2173.64Z" fill="white"/>
<path d="M2228.36 1374.9C2235.12 1373.77 2243.97 1372.8 2255.24 1372.8C2269.08 1372.8 2279.22 1376.04 2285.66 1381.86C2291.62 1387.04 2295.16 1394.97 2295.16 1404.67C2295.16 1414.54 2292.26 1422.31 2286.79 1427.97C2279.38 1435.9 2267.31 1439.94 2253.63 1439.94C2249.45 1439.94 2245.58 1439.78 2242.36 1438.97V1482.66H2228.36V1374.9ZM2242.37 1427.48C2245.43 1428.29 2249.29 1428.61 2253.96 1428.61C2270.86 1428.61 2281.16 1420.36 2281.16 1405.31C2281.16 1390.91 2271.02 1383.95 2255.57 1383.95C2249.45 1383.95 2244.79 1384.43 2242.37 1385.08V1427.48Z" fill="white"/>
<path d="M2346.03 1482.66V1436.38L2311.74 1373.6H2327.68L2342.97 1403.69C2347.15 1411.94 2350.37 1418.58 2353.75 1426.18H2354.07C2357.13 1419.06 2360.83 1411.94 2365.02 1403.69L2380.63 1373.6H2396.57L2360.19 1436.22V1482.66H2346.03Z" fill="white"/>
</svg>
