<svg id="Capa_1" enable-background="new 0 0 512 512" height="512" viewBox="0 0 512 512" width="512" xmlns="http://www.w3.org/2000/svg"><g><g><g><g><circle cx="256" cy="256" fill="#9dc6fb" r="215.156"/></g><g fill="#f95750"><path d="m99.298 8h-66.298c-13.807 0-25 11.193-25 25v66.298c0 9.09 7.369 16.459 16.459 16.459 9.09 0 16.459-7.369 16.459-16.459v-58.379h58.379c9.09 0 16.459-7.369 16.459-16.459.001-9.091-7.368-16.46-16.458-16.46z"/><path d="m412.702 8h66.298c13.807 0 25 11.193 25 25v66.298c0 9.09-7.369 16.459-16.459 16.459-9.09 0-16.459-7.369-16.459-16.459v-58.379h-58.379c-9.09 0-16.459-7.369-16.459-16.459-.001-9.091 7.368-16.46 16.458-16.46z"/><path d="m99.298 504h-66.298c-13.807 0-25-11.193-25-25v-66.298c0-9.09 7.369-16.459 16.459-16.459 9.09 0 16.459 7.369 16.459 16.459v58.379h58.379c9.09 0 16.459 7.369 16.459 16.459.001 9.091-7.368 16.46-16.458 16.46z"/><path d="m412.702 504h66.298c13.807 0 25-11.193 25-25v-66.298c0-9.09-7.369-16.459-16.459-16.459-9.09 0-16.459 7.369-16.459 16.459v58.379h-58.379c-9.09 0-16.459 7.369-16.459 16.459-.001 9.091 7.368 16.46 16.458 16.46z"/></g><g fill="#e84642"><path d="m99.298 22.919h-53.379c-2.761 0-5 2.239-5 5v13h58.379c9.09 0 16.459-7.369 16.459-16.459 0-3.324-.993-6.413-2.688-9-2.939 4.488-8.005 7.459-13.771 7.459z"/><path d="m24.459 97.757c-9.09 0-16.459-7.369-16.459-16.459v18c0 9.09 7.369 16.459 16.459 16.459s16.459-7.369 16.459-16.459v-18c.001 9.09-7.368 16.459-16.459 16.459z"/></g><g fill="#e84642"><path d="m471.081 27.919c0-2.761-2.239-5-5-5h-53.379c-5.766 0-10.832-2.971-13.771-7.459-1.695 2.587-2.688 5.676-2.688 9 0 9.09 7.369 16.459 16.459 16.459h58.379z"/><path d="m487.54 97.757c-9.09 0-16.459-7.369-16.459-16.459v18c0 9.09 7.369 16.459 16.459 16.459s16.46-7.369 16.46-16.459v-18c0 9.09-7.369 16.459-16.46 16.459z"/></g><path d="m99.298 486h-66.298c-13.807 0-25-11.193-25-25v18c0 13.807 11.193 25 25 25h66.298c9.09 0 16.459-7.369 16.459-16.46 0-3.324-.993-6.412-2.688-9-2.939 4.489-8.005 7.46-13.771 7.46z" fill="#e84642"/><path d="m479 486h-66.298c-5.766 0-10.832-2.971-13.771-7.46-1.695 2.588-2.688 5.676-2.688 9 0 9.09 7.369 16.46 16.459 16.46h66.298c13.807 0 25-11.193 25-25v-18c0 13.807-11.193 25-25 25z" fill="#e84642"/></g><path d="m347.52 207.36c13.387-32.392 3.897-68.939-15.717-83.355-16.395-12.049-35.5-8.59-35.5-8.59s-14.377-15.09-40.303-15.09c-35.407 0-107.308 17.951-93.627 108.193" fill="#af665a"/><path d="m256 410.347c37.582 0 72.029-13.409 98.829-35.698-26.811-48.61-67.47-61.146-67.47-61.146h-.02c-9.449 4.674-20.083 7.313-31.338 7.313-11.255 0-21.89-2.639-31.338-7.313h-.02s-40.659 12.536-67.47 61.146c26.798 22.289 61.245 35.698 98.827 35.698z" fill="#eef2f5"/><path d="m256 392.347c-34.176 0-65.758-11.092-91.356-29.864-2.575 3.781-5.08 7.827-7.473 12.165 26.8 22.289 61.247 35.698 98.829 35.698s72.029-13.409 98.829-35.698c-2.393-4.339-4.898-8.385-7.473-12.165-25.598 18.773-57.18 29.864-91.356 29.864z" fill="#deeaf3"/><path d="m326.787 207.425v42.604c0 39.095-31.693 70.787-70.787 70.787-39.095 0-70.787-31.693-70.787-70.787v-42.604c42.886-5 93.849-45.692 93.849-45.692s24.889 35.421 47.725 45.692z" fill="#fdd4bb"/><path d="m256 302.816c-39.095 0-70.787-31.693-70.787-70.787v18c0 39.095 31.693 70.787 70.787 70.787 39.095 0 70.787-31.693 70.787-70.787v-18c0 39.094-31.692 70.787-70.787 70.787z" fill="#f7c4a8"/><path d="m326.787 207.425c3.148-1.546 6.687-2.418 10.43-2.418 13.083 0 23.69 10.606 23.69 23.69s-10.606 23.69-23.69 23.69c-3.744 0-7.283-.872-10.43-2.418z" fill="#ebbaa1"/><path d="m185.213 207.425c-3.148-1.546-6.687-2.418-10.43-2.418-13.083 0-23.689 10.606-23.689 23.69s10.606 23.69 23.689 23.69c3.744 0 7.283-.872 10.43-2.418z" fill="#ebbaa1"/><path d="m337.217 234.387c-3.744 0-7.283-.872-10.43-2.418v18c3.148 1.546 6.687 2.418 10.43 2.418 13.083 0 23.69-10.606 23.69-23.69 0-3.187-.633-6.225-1.774-9-3.544 8.619-12.019 14.69-21.916 14.69z" fill="#e8a990"/><path d="m152.867 219.697c-1.141 2.775-1.774 5.813-1.774 9 0 13.083 10.606 23.69 23.689 23.69 3.744 0 7.283-.872 10.43-2.418v-18c-3.148 1.546-6.687 2.418-10.43 2.418-9.896 0-18.371-6.071-21.915-14.69z" fill="#e8a990"/><path d="m256 320.816c-11.258 0-21.894-2.64-31.344-7.316l-.014.003 15.679 39.737h31.358l15.679-39.737-.014-.003c-9.45 4.676-20.087 7.316-31.344 7.316z" fill="#f68acc"/><path d="m230.285 408.207c8.365 1.4 16.953 2.14 25.715 2.14s17.35-.74 25.715-2.14l-10.036-54.967h-31.358z" fill="#ffa6d4"/><path d="m256 392.347c-7.65 0-15.168-.565-22.52-1.638l-3.195 17.498c8.365 1.4 16.953 2.14 25.715 2.14s17.351-.74 25.715-2.14l-3.195-17.498c-7.352 1.073-14.87 1.638-22.52 1.638z" fill="#f690d2"/></g><g><path d="m413.75 413.75c40.36-40.36 63.336-93.463 65.203-150.235h22.524c4.151 0 7.515-3.365 7.515-7.515s-3.364-7.515-7.515-7.515h-22.524c-1.867-56.772-24.843-109.875-65.203-150.235s-93.463-63.336-150.235-65.203v-22.523c0-4.15-3.364-7.515-7.515-7.515s-7.515 3.364-7.515 7.515v22.523c-56.772 1.867-109.874 24.843-150.234 65.204-40.36 40.36-63.336 93.463-65.203 150.235h-22.524c-4.151 0-7.515 3.364-7.515 7.515s3.364 7.515 7.515 7.515h22.524c1.867 56.772 24.843 109.875 65.203 150.235s93.463 63.336 150.235 65.203v22.524c0 4.15 3.364 7.515 7.515 7.515s7.515-3.365 7.515-7.515v-22.524c56.771-1.868 109.873-24.845 150.234-65.204zm-365.661-150.235h9.097c4.151 0 7.515-3.365 7.515-7.515s-3.364-7.515-7.515-7.515h-9.097c3.882-108.762 91.634-196.515 200.396-200.397v9.098c0 4.15 3.364 7.515 7.515 7.515s7.515-3.365 7.515-7.515v-9.098c108.762 3.882 196.514 91.635 200.397 200.397h-9.097c-4.151 0-7.515 3.364-7.515 7.515s3.364 7.515 7.515 7.515h9.097c-3.882 108.762-91.635 196.515-200.397 200.397v-9.098c0-4.15-3.364-7.515-7.515-7.515s-7.515 3.365-7.515 7.515v9.098c-108.762-3.882-196.514-91.635-200.396-200.397z"/><path d="m24.006 122.998c13.238 0 24.007-10.769 24.007-24.006v-50.979h50.979c13.237 0 24.006-10.769 24.006-24.006-.001-13.238-10.77-24.007-24.007-24.007h-66.427c-17.956 0-32.564 14.608-32.564 32.564v66.428c0 13.237 10.769 24.006 24.006 24.006zm-8.977-90.434c0-9.668 7.866-17.534 17.534-17.534h66.428c4.95 0 8.976 4.027 8.976 8.977s-4.026 8.977-8.976 8.977h-58.493c-4.151 0-7.515 3.364-7.515 7.515v58.493c0 4.95-4.027 8.977-8.977 8.977s-8.976-4.027-8.976-8.977v-66.428z"/><path d="m479.436 0h-17.82c-4.151 0-7.515 3.365-7.515 7.515s3.364 7.515 7.515 7.515h17.82c9.668 0 17.534 7.866 17.534 17.534v66.428c0 4.95-4.026 8.977-8.977 8.977s-8.978-4.027-8.978-8.977v-58.494c0-4.15-3.364-7.515-7.515-7.515h-58.493c-4.95 0-8.977-4.027-8.977-8.977s4.026-8.977 8.977-8.977h18.549c4.151 0 7.515-3.365 7.515-7.515s-3.363-7.514-7.513-7.514h-18.549c-13.237 0-24.006 10.769-24.006 24.006s10.769 24.006 24.006 24.006h50.979v50.979c0 13.237 10.769 24.006 24.007 24.006 13.237 0 24.006-10.769 24.006-24.006v-66.427c-.001-17.956-14.609-32.564-32.565-32.564z"/><path d="m98.991 463.987h-50.978v-50.979c0-13.237-10.769-24.006-24.007-24.006-13.237 0-24.006 10.77-24.006 24.007v66.428c0 17.955 14.608 32.563 32.564 32.563h17.05c4.151 0 7.515-3.365 7.515-7.515s-3.364-7.515-7.515-7.515h-17.05c-9.668 0-17.534-7.866-17.534-17.534v-66.428c0-4.95 4.026-8.977 8.976-8.977s8.977 4.027 8.977 8.977v58.493c0 4.15 3.364 7.515 7.515 7.515h58.493c4.95 0 8.976 4.027 8.976 8.977s-4.026 8.977-8.976 8.977h-19.319c-4.151 0-7.515 3.365-7.515 7.515s3.364 7.515 7.515 7.515h19.319c13.237 0 24.006-10.769 24.006-24.006 0-13.238-10.769-24.007-24.006-24.007z"/><path d="m487.994 389.002c-13.238 0-24.007 10.769-24.007 24.006v50.979h-50.979c-13.237 0-24.006 10.769-24.006 24.006s10.769 24.006 24.006 24.006h66.428c17.956.001 32.564-14.607 32.564-32.563v-66.428c0-13.236-10.769-24.006-24.006-24.006zm8.977 90.434c0 9.668-7.866 17.534-17.534 17.534h-66.428c-4.95 0-8.977-4.027-8.977-8.977s4.026-8.977 8.977-8.977h58.493c4.151 0 7.515-3.364 7.515-7.515v-58.493c0-4.95 4.027-8.977 8.978-8.977s8.977 4.027 8.977 8.977v66.428z"/><path d="m287.42 243.417c4.151 0 7.515-3.364 7.515-7.515v-11.488c0-4.15-3.364-7.515-7.515-7.515s-7.515 3.365-7.515 7.515v11.488c0 4.15 3.364 7.515 7.515 7.515z"/><path d="m224.58 243.417c4.151 0 7.515-3.364 7.515-7.515v-11.488c0-4.15-3.364-7.515-7.515-7.515s-7.515 3.365-7.515 7.515v11.488c.001 4.15 3.365 7.515 7.515 7.515z"/><path d="m230.832 273.753c2.361 5.381 10.148 14.106 25.168 14.106s22.807-8.725 25.168-14.106c.47-.981.741-2.076.741-3.237 0-4.15-3.365-7.515-7.515-7.515-3.093 0-5.747 1.87-6.9 4.539 0 0-.002-.001-.002-.002-.263.542-2.822 5.291-11.492 5.291s-11.229-4.75-11.492-5.291c0 0-.002.001-.002.002-1.153-2.67-3.807-4.539-6.9-4.539-4.15 0-7.515 3.364-7.515 7.515 0 1.16.271 2.255.741 3.237z"/><path d="m359.828 380.659c2.771-2.304 3.516-6.251 1.775-9.406-18.459-33.467-43.071-50.734-58.219-58.776 16.427-12.493 27.782-31.305 30.439-52.78 1.172.132 2.357.199 3.555.199 17.232 0 31.25-14.019 31.25-31.251 0-9.878-4.612-18.694-11.79-24.425 5.002-15.079 5.995-31.543 2.742-47.013-3.552-16.897-12-31.299-23.178-39.514-14.339-10.539-30.312-10.885-37.501-10.383-5.935-4.895-20.694-14.802-42.9-14.802-9.898 0-35.488 1.447-59.262 14.846-3.615 2.038-4.894 6.621-2.856 10.236 2.036 3.615 6.62 4.894 10.236 2.857 20.673-11.652 43.17-12.91 51.883-12.91 22.181 0 34.462 12.299 34.941 12.788 1.726 1.812 4.28 2.639 6.744 2.217.159-.027 16.332-2.649 29.816 7.261 18.476 13.578 22.534 44.544 15.531 68.113-1.836-.337-3.724-.522-5.655-.522-3.497 0-6.893.573-10.141 1.692-7.837-4.274-17.128-12.283-27.087-23.391-8.722-9.727-14.835-18.382-14.893-18.466-1.192-1.696-3.031-2.823-5.082-3.117-2.054-.295-4.135.273-5.753 1.564-.487.388-48.333 38.237-88.253 43.935-3.668-1.465-7.539-2.217-11.544-2.217-2.09 0-4.131.21-6.107.603-2.185-24.818 2.753-45.008 14.762-60.087 2.586-3.246 2.051-7.974-1.196-10.56-3.247-2.585-7.975-2.049-10.56 1.197-15.46 19.41-21.292 45.139-17.376 76.521-6.593 5.734-10.773 14.173-10.773 23.576 0 17.232 14.019 31.251 31.251 31.251 1.197 0 2.383-.067 3.555-.199 2.656 21.476 14.011 40.288 30.439 52.78-15.148 8.042-39.761 25.309-58.22 58.776-1.741 3.155-.996 7.102 1.775 9.406 29.08 24.186 65.954 37.505 103.828 37.505s74.744-13.319 103.824-37.504zm-25.388-167.974c.96-.175 1.94-.263 2.936-.263 8.944 0 16.221 7.277 16.221 16.221 0 8.945-7.277 16.222-16.221 16.222-.996 0-1.977-.088-2.936-.263zm-156.88 31.917c-.96.175-1.94.263-2.936.263-8.944 0-16.221-7.277-16.221-16.222 0-8.944 7.277-16.221 16.221-16.221.996 0 1.976.088 2.936.263zm129.877 87.949c10.603 7.306 25.394 20.101 37.831 40.49-17.042 12.968-36.706 22.015-57.481 26.609l-8.3-45.457 12.136-30.759c3.986 1.855 9.521 4.781 15.814 9.117zm-114.848-82.534v-.06-36.178c17.386-3.263 37.352-11.573 59.465-24.765 10.97-6.543 19.968-12.821 25.55-16.907 7.898 10.204 24.693 30.194 41.807 39.827v38.022.06c0 34.965-28.446 63.411-63.411 63.411s-63.411-28.445-63.411-63.41zm31.624 149.633c-20.775-4.594-40.44-13.641-57.482-26.609 18.44-30.236 42.378-44.296 53.652-49.588l12.128 30.739zm31.787-71.193c6.319 0 12.459-.771 18.349-2.189l-7.752 19.647h-21.194l-7.752-19.647c5.89 1.418 12.03 2.189 18.349 2.189zm-9.443 32.488h18.885l7.523 41.199c-5.612.652-11.275.99-16.965.99s-11.353-.338-16.965-.99z"/></g></g></svg>