<svg xmlns="http://www.w3.org/2000/svg" version="1.1" xmlns:xlink="http://www.w3.org/1999/xlink" width="512" height="512" x="0" y="0" viewBox="0 0 200 200" style="enable-background:new 0 0 512 512" xml:space="preserve"><g><path d="M102.901 148.993a22.107 22.107 0 0 1-7.08-14.194l-3.178-32.957c-.12-1.237-1.225-2.152-2.456-2.023a2.249 2.249 0 0 0-2.023 2.455l3.179 32.957a26.594 26.594 0 0 0 8.52 17.08l12.255 11.23c.432.395.976.59 1.519.59a2.25 2.25 0 0 0 1.52-3.91z" fill="#ffffff" opacity="1" data-original="#000000"></path><path d="M123.71 114.876c2.303-8.644-3.236-17.806-15.4-25.291a75.003 75.003 0 0 1-2.51-1.616 2.29 2.29 0 0 0-.765-.519c-2.6-1.799-4.553-3.433-6.021-4.86 9.174.295 14.455-3.002 16.952-5.26 3.209-2.9 4.976-6.784 4.727-10.387-.255-3.703 1.093-4.514 1.38-4.643.884-.103 1.536-.686 1.796-1.545.265-.879-.126-1.79-.84-2.364-.046-.041-4.52-4.304-4.13-20.49.223-9.235-6.824-15.727-18.85-17.366-4.909-.667-20.789-2.125-29.52 5.305a25.916 25.916 0 0 0-4.257 4.2c-6.504 8.088-8.905 20.225-7.134 36.074 4.414 39.517-6.975 45.334-7.028 45.362a2.253 2.253 0 0 0-.625 3.812c.069.058 4.067 3.338 9.776 3.338 3.033 0 6.55-.932 10.215-3.761.187 6.723 2.017 13.786 5.467 21.13.528 2.019 3.975 17.304-7.766 33.59a2.249 2.249 0 1 0 3.65 2.63c7.19-9.971 9.236-19.522 9.507-26.532a114.378 114.378 0 0 0 6.5 9.119c8.34 10.598 16.503 17.528 16.847 17.818a2.246 2.246 0 0 0 3.17-.268c.802-.95.681-2.37-.268-3.171-.321-.272-32.164-27.457-32.627-54.84-.108-6.38-.02-14.422 1.398-19.26.172-.475.335-.948.488-1.418.46-1.106 1.022-1.951 1.716-2.42 1.902-1.293 5.523-.181 11.126 2.17 6.246 2.622 10.619 2.944 13.374.979a5.6 5.6 0 0 0 1.327-1.332c.19.12.372.237.567.357 5.023 3.091 16.308 11.277 13.278 20.812a31.623 31.623 0 0 0-2.29-.093 31.89 31.89 0 0 0-3.554.198 2.251 2.251 0 0 0-1.985 2.488 2.253 2.253 0 0 0 2.489 1.985c1.004-.114 2.03-.171 3.05-.171 15.275 0 27.702 12.787 27.702 28.504 0 14.307-10.384 26.462-24.154 28.272a2.25 2.25 0 1 0 .586 4.461c16.001-2.103 28.068-16.176 28.068-32.733 0-15.818-10.917-29.067-25.432-32.264zm-63.92-.83a11.512 11.512 0 0 1-2.84-.76c4.112-4.387 10.163-16.312 6.66-47.672-1.203-10.777-.261-18.644 1.69-24.407.55 5.268 2.518 10.574 4.576 16.107 4.015 10.8 8.143 21.965 3.456 35.593l-.06.182c-.063.182-.11.359-.177.542-.038.103-.058.208-.08.313-.992 3.462-1.492 8.267-1.576 14.85-3.703 4.01-7.619 5.782-11.65 5.252zm41.623-23.296c-.491.332-2.589 1.202-8.987-1.485-4.883-2.05-9.296-3.669-12.904-2.827 1.643-11.661-2.07-21.663-5.428-30.692-2.59-6.963-5.035-13.54-4.32-19.581.264-2.225 1.12-4.206 2.475-5.73 1.91-2.147 4.7-3.611 7.927-4.56a10.692 10.692 0 0 1 1.271-.252 2.23 2.23 0 0 0 .899-.305c5.385-1.15 11.65-1.065 17.095-.324 1.926.262 4.92.86 7.727 2.18.925 8.686-5.656 15.442-12.395 18.111-1.11.44-2.606.791-4.189 1.163-4.948 1.164-11.726 2.759-12.807 9.24-.436 2.619.572 5.496 2.631 7.508 2.207 2.158 5.489 3.344 9.152 3.344.456 0 .919-.019 1.385-.056a2.251 2.251 0 0 0 2.065-2.422c-.1-1.239-1.205-2.15-2.422-2.064-2.88.23-5.506-.525-7.035-2.02-1.007-.985-1.532-2.378-1.336-3.55.546-3.274 4.24-4.386 9.397-5.599 1.748-.411 3.4-.8 4.815-1.36 8.798-3.484 14.56-10.953 15.25-19.112 1.686 1.822 2.8 4.234 2.723 7.436-.301 12.452 2.114 18.803 3.923 21.785-1.254 1.322-2.399 3.644-2.122 7.673.12 1.728-.673 4.406-3.255 6.74-2.288 2.07-7.611 5.22-17.788 3.74-.39-.75-.497-1.188-.511-1.253a2.243 2.243 0 0 0-2.47-1.925 2.25 2.25 0 0 0-1.996 2.477c.034.318.264 1.76 1.706 4.022.012.018.022.037.035.055 1.522 2.37 4.376 5.629 9.695 9.437-.063.072-.117.146-.206.206z" fill="#ffffff" opacity="1" data-original="#000000"></path></g></svg>