<svg id="Layer_1" height="512" viewBox="0 0 512 512" width="512" xmlns="http://www.w3.org/2000/svg" data-name="Layer 1"><path d="m112.715 415.385v-44.769h236.56v44.769c0 31.724-52.956 57.442-118.28 57.442s-118.28-25.718-118.28-57.442z" fill="#f19a00" fill-rule="evenodd"/><path d="m143.09 370.616h206.185v44.769c0 31.724-52.956 57.442-118.28 57.442-30.222 0-57.792-5.508-78.7-14.565-5.927-6.844-9.205-14.362-9.205-22.252z" fill="#f9ac00" fill-rule="evenodd"/><path d="m112.715 370.616v-44.77h236.56v44.77c0 31.724-52.956 57.442-118.28 57.442s-118.28-25.718-118.28-57.442z" fill="#fdc72e" fill-rule="evenodd"/><path d="m143.09 325.846h206.185v44.77c0 31.724-52.956 57.442-118.28 57.442-34.894 0-66.255-7.34-87.905-19.012z" fill="#fcdb35" fill-rule="evenodd"/><path d="m112.715 325.846v-44.769h236.56v44.769c0 31.725-52.956 57.442-118.28 57.442s-118.28-25.718-118.28-57.442z" fill="#f19a00" fill-rule="evenodd"/><path d="m143.09 281.077h206.185v44.769c0 31.725-52.956 57.442-118.28 57.442-34.894 0-66.255-7.34-87.905-19.012v-83.2z" fill="#f9ac00" fill-rule="evenodd"/><path d="m112.715 281.077v-44.769h236.56v44.769c0 31.725-52.956 57.442-118.28 57.442s-118.28-25.718-118.28-57.442z" fill="#fdc72e" fill-rule="evenodd"/><path d="m143.09 236.308h206.185v44.769c0 31.725-52.956 57.442-118.28 57.442-34.894 0-66.255-7.34-87.905-19.012v-83.2z" fill="#fcdb35" fill-rule="evenodd"/><path d="m112.715 236.308v-44.769h236.56v44.769c0 31.725-52.956 57.442-118.28 57.442s-118.28-25.718-118.28-57.442z" fill="#f19a00" fill-rule="evenodd"/><path d="m143.09 191.539h206.185v44.769c0 31.725-52.956 57.442-118.28 57.442-34.894 0-66.255-7.34-87.905-19.012v-83.2z" fill="#f9ac00" fill-rule="evenodd"/><ellipse cx="230.995" cy="191.539" fill="#fcdb35" rx="118.28" ry="57.442"/><ellipse cx="230.995" cy="191.539" fill="#f19a00" rx="104.28" ry="43.443"/><g fill-rule="evenodd"><path d="m235.495 148.139c55.504.982 99.78 20.036 99.78 43.4s-44.276 42.417-99.78 43.4c-55.504-.982-99.78-20.036-99.78-43.4s44.276-42.417 99.78-43.4z" fill="#f9ac00"/><path d="m82.076 171.806v-62.734c0-2.51-2.047-4.558-4.558-4.558h-27.323c-2.51 0-4.557 2.047-4.557 4.557v62.735h-13.462c-1.639 0-3.04.91-3.707 2.406-.667 1.497-.406 3.147.69 4.365l31.682 35.211c.798.886 1.824 1.344 3.016 1.344s2.219-.457 3.016-1.344l31.682-35.211c1.096-1.218 1.357-2.868.69-4.365s-2.068-2.406-3.706-2.406z" fill="#ed1717"/><path d="m82.076 171.806v-62.734c0-2.51-2.047-4.558-4.558-4.558h-18.886c-2.51 0-4.557 2.047-4.557 4.557v62.735h-11.962c-1.639 0-3.04.91-3.707 2.406-.667 1.497-.406 3.147.69 4.365l29.729 33.041 29.729-33.041c1.096-1.218 1.357-2.868.69-4.365s-2.068-2.406-3.706-2.406h-13.463z" fill="#ff3838"/><path d="m249.214 78.296v-62.734c0-2.51-2.047-4.558-4.558-4.558h-27.323c-2.51 0-4.558 2.047-4.558 4.557v62.735h-13.462c-1.639 0-3.04.91-3.707 2.406-.667 1.497-.406 3.147.69 4.365l31.682 35.211c.798.886 1.824 1.344 3.016 1.344s2.219-.457 3.016-1.344l31.682-35.211c1.096-1.218 1.357-2.868.69-4.365s-2.068-2.406-3.706-2.406h-13.463z" fill="#ed1717"/><path d="m249.214 78.296v-62.734c0-2.51-2.047-4.558-4.558-4.558h-18.886c-2.51 0-4.557 2.047-4.557 4.557v62.735h-11.962c-1.639 0-3.04.91-3.707 2.406-.667 1.497-.406 3.147.69 4.365l29.729 33.041 29.729-33.041c1.096-1.218 1.357-2.868.69-4.365s-2.068-2.406-3.706-2.406h-13.463z" fill="#ff3838"/><path d="m416.352 171.806v-62.734c0-2.51-2.047-4.558-4.558-4.558h-27.323c-2.51 0-4.557 2.047-4.557 4.557v62.735h-13.462c-1.639 0-3.04.91-3.707 2.406-.667 1.497-.406 3.147.69 4.365l31.682 35.211c.798.886 1.824 1.344 3.016 1.344s2.219-.457 3.016-1.344l31.682-35.211c1.096-1.218 1.357-2.868.69-4.365s-2.068-2.406-3.706-2.406z" fill="#ed1717"/><path d="m416.352 171.806v-62.734c0-2.51-2.047-4.558-4.558-4.558h-18.886c-2.51 0-4.558 2.047-4.558 4.557v62.735h-11.962c-1.638 0-3.04.91-3.707 2.406-.667 1.497-.406 3.147.69 4.365l29.729 33.041 29.729-33.041c1.096-1.218 1.357-2.868.69-4.365s-2.068-2.406-3.706-2.406h-13.463z" fill="#ff3838"/><path d="m247.329 443.562v-44.769h236.56v44.769c0 31.725-52.956 57.442-118.28 57.442s-118.28-25.718-118.28-57.442z" fill="#fdc72e"/><path d="m277.705 398.793h206.185v44.769c0 31.725-52.956 57.442-118.28 57.442-34.894 0-66.255-7.34-87.905-19.012v-83.2z" fill="#fcdb35"/><path d="m247.329 398.793v-44.769h236.56v44.769c0 31.725-52.956 57.442-118.28 57.442s-118.28-25.718-118.28-57.442z" fill="#f19a00"/><path d="m277.705 354.024h206.185v44.769c0 31.725-52.956 57.442-118.28 57.442-34.894 0-66.255-7.34-87.905-19.012v-83.2z" fill="#f9ac00"/></g><ellipse cx="365.609" cy="354.024" fill="#fcdb35" rx="118.28" ry="57.442"/><ellipse cx="365.609" cy="354.024" fill="#f19a00" rx="104.28" ry="43.443"/><path d="m370.109 310.624c55.504.982 99.78 20.036 99.78 43.4s-44.276 42.417-99.78 43.4c-55.504-.982-99.78-20.036-99.78-43.4s44.276-42.417 99.78-43.4z" fill="#f9ac00" fill-rule="evenodd"/><path d="m351.615 344.689c-2.28-1.555-3.61-3.419-3.742-5.248-.108-1.638.721-3.36 2.349-4.856 2.251-2.06 6.062-3.453 10.393-4.061v17.607c-3.541-.873-6.773-1.918-9-3.443zm32.287 22.914c.422.77.819 1.918.132 3.987-.888 2.688-6.052 5.415-13.419 6.101v-17.102c6.969 1.775 11.81 4.321 13.287 7.013zm-37.236 1.02c-.711-2.668-3.443-4.262-6.111-3.551-2.673.701-4.262 3.443-3.561 6.111 2.688 10.143 13.238 14.93 23.621 16.268v6.293c0 2.761 2.237 5.003 4.998 5.003s5.003-2.241 5.003-5.003v-6.023c9.687-.711 20.04-4.346 22.909-12.978 1.407-4.242 1.108-8.377-.858-11.957-3.002-5.454-9.495-9.363-19.844-11.957-.721-.176-1.457-.348-2.207-.515v-19.819c1.658.221 3.281.549 4.831 1.011 4.968 1.471 8.249 3.958 8.985 6.827.692 2.668 3.414 4.282 6.092 3.59 2.668-.692 4.282-3.419 3.59-6.092-1.658-6.44-7.279-11.383-15.827-13.914-2.354-.697-4.954-1.187-7.671-1.467v-6.16c0-2.756-2.241-4.998-5.003-4.998s-4.998 2.241-4.998 4.998v6.165c-6.543.697-12.84 2.81-17.151 6.763-3.929 3.6-5.9 8.191-5.562 12.933.353 4.939 3.222 9.481 8.073 12.796 4.09 2.791 9.309 4.262 14.64 5.449v18.927c-6.518-1.108-12.703-3.963-13.949-8.701zm132.227 30.163c0 28.427-51.871 52.444-113.281 52.444s-113.276-24.018-113.276-52.444v-19.775c6.352 7.489 15.616 14.307 27.524 20.089 23.052 11.197 53.504 17.362 85.752 17.362s62.71-6.165 85.761-17.362c11.898-5.782 21.168-12.6 27.519-20.089v19.775zm0 44.769v-19.702c-18.721 22.193-61.851 37.378-113.281 37.378s-94.56-15.185-113.276-37.378v19.702c0 28.427 51.876 52.445 113.276 52.445s113.281-24.018 113.281-52.445zm-361.172-28.177v-19.702c18.721 22.193 61.851 37.373 113.281 37.373 3.781 0 7.573-.093 11.334-.26v10.765c0 8.328 3.07 16.224 8.666 23.424-6.577.554-13.272.844-20.001.844-61.405 0-113.281-24.018-113.281-52.445zm0-64.471v19.702c0 28.427 51.876 52.44 113.281 52.44 3.781 0 7.578-.093 11.334-.27v-34.759c-3.762.172-7.558.26-11.334.26-51.429 0-94.56-15.18-113.281-37.373zm0-44.769c18.721 22.193 61.851 37.373 113.281 37.373 4.39 0 8.779-.127 13.13-.358-1.187 3.541-1.795 7.176-1.795 10.864v23.993c-3.762.182-7.553.275-11.334.275-61.405 0-113.281-24.018-113.281-52.444v-19.702zm0-44.769c18.721 22.188 61.851 37.373 113.281 37.373s94.56-15.185 113.281-37.373v19.702c0 3.933-1.02 7.862-2.987 11.702-23.042 2.295-44.283 7.833-61.435 16.161-13.865 6.739-24.165 14.875-30.428 23.856-6.062.471-12.246.721-18.431.721-61.405 0-113.281-24.012-113.281-52.44zm0-44.848v19.78c0 28.427 51.876 52.44 113.281 52.44s113.281-24.013 113.281-52.44v-19.78c-6.346 7.494-15.621 14.312-27.529 20.094-23.052 11.192-53.499 17.357-85.752 17.357s-62.705-6.165-85.757-17.357c-11.903-5.782-21.173-12.6-27.524-20.094zm113.281-77.434c61.4 0 113.281 24.018 113.281 52.445s-51.881 52.44-113.281 52.44-113.281-24.013-113.281-52.44 51.876-52.445 113.281-52.445zm247.892 214.928c0-28.427-51.871-52.445-113.281-52.445s-113.276 24.018-113.276 52.445 51.876 52.445 113.276 52.445 113.281-24.018 113.281-52.445zm-27.519-45.083c-23.052-11.192-53.509-17.357-85.761-17.357-3.801 0-7.577.093-11.329.26v-100.303c0-17.323-13.331-33.331-37.53-45.083-23.052-11.197-53.499-17.362-85.752-17.362s-62.705 6.165-85.757 17.362c-24.199 11.751-37.525 27.76-37.525 45.083v223.845c0 35.014 54.151 62.445 123.281 62.445 9.77 0 19.476-.579 28.888-1.702 21.384 18.044 60.326 29.879 105.723 29.879 69.13 0 123.281-27.431 123.281-62.445v-89.538c0-17.318-13.321-33.331-37.52-45.083zm-387.511-99.27-29.565-32.861h11.344c2.761 0 5.003-2.237 5.003-4.998v-62.293h26.435v62.293c0 2.761 2.241 4.998 5.003 4.998h11.344l-29.565 32.861zm31.679-42.861h-8.46v-57.737c0-5.267-4.287-9.554-9.554-9.554h-27.328c-5.267 0-9.554 4.287-9.554 9.554v57.737h-8.465c-3.625 0-6.798 2.06-8.274 5.371-1.476 3.315-.883 7.048 1.54 9.745l31.683 35.21c1.741 1.938 4.13 3.002 6.734 3.002s4.993-1.064 6.734-3.002l31.684-35.21c2.423-2.698 3.011-6.43 1.54-9.745-1.476-3.311-4.649-5.371-8.279-5.371zm284.382 10c2.761 0 4.998-2.237 4.998-4.998v-62.293h26.44v62.293c0 2.761 2.231 4.998 5.003 4.998h11.339l-29.56 32.861-29.57-32.861h11.349zm11.481 40.325-31.683-35.21c-2.428-2.698-3.016-6.43-1.54-9.745 1.481-3.311 4.655-5.371 8.269-5.371h8.47v-57.737c0-5.267 4.282-9.554 9.554-9.554h27.328c5.273 0 9.559 4.287 9.559 9.554v57.737h8.461c3.62 0 6.793 2.06 8.269 5.371 1.481 3.315.893 7.048-1.54 9.745l-31.679 35.21c-1.741 1.938-4.129 3.002-6.729 3.002s-5.003-1.064-6.739-3.002zm-178.624-133.835c2.761 0 5.003-2.237 5.003-4.998v-62.293h26.436v62.293c0 2.761 2.241 4.998 5.003 4.998h11.344l-29.564 32.861-29.565-32.861h11.344zm11.487 40.325c1.741 1.937 4.13 3.002 6.734 3.002s4.993-1.064 6.734-3.002l31.679-35.21c2.428-2.698 3.021-6.43 1.54-9.74-1.472-3.315-4.64-5.375-8.269-5.375h-8.465v-57.733c0-5.272-4.287-9.559-9.559-9.559h-27.323c-5.268 0-9.554 4.287-9.554 9.559v57.732h-8.465c-3.624 0-6.798 2.06-8.274 5.37-1.471 3.315-.883 7.048 1.54 9.745l31.684 35.21zm-7.264 58.59c2.222 1.521 5.459 2.57 9 3.443v-17.612c-4.336.613-8.146 2.001-10.393 4.066-1.633 1.491-2.467 3.217-2.349 4.851.133 1.829 1.462 3.698 3.742 5.253zm32.282 22.909c-1.481-2.688-6.317-5.238-13.286-7.009v17.102c7.367-.686 12.526-3.413 13.419-6.101.687-2.07.289-3.222-.133-3.992zm-37.235 1.02c1.251 4.738 7.425 7.592 13.954 8.706v-18.927c-5.336-1.192-10.56-2.663-14.64-5.449-4.856-3.315-7.725-7.862-8.078-12.796-.338-4.743 1.638-9.338 5.562-12.938 4.311-3.953 10.609-6.062 17.156-6.763v-6.16c0-2.761 2.236-4.998 4.998-4.998s4.998 2.237 4.998 4.998v6.16c2.717.279 5.326.77 7.671 1.466 8.544 2.531 14.164 7.469 15.827 13.909.691 2.673-.912 5.4-3.59 6.092-2.673.697-5.4-.917-6.086-3.59-.746-2.864-4.017-5.351-8.99-6.827-1.545-.456-3.178-.785-4.831-1.005v19.819c.75.167 1.491.338 2.207.515 10.354 2.595 16.847 6.503 19.844 11.957 1.967 3.58 2.266 7.715.858 11.952-2.864 8.632-13.222 12.266-22.909 12.982v6.023c0 2.761-2.236 4.998-4.998 4.998s-4.998-2.236-4.998-4.998v-6.292c-10.383-1.344-20.938-6.126-23.621-16.269-.706-2.673.883-5.41 3.551-6.116 2.673-.706 5.41.883 6.116 3.551z" fill-rule="evenodd"/></svg>