<?xml version="1.0" encoding="UTF-8"?>
<svg xmlns="http://www.w3.org/2000/svg" viewBox="0 0 64 64" width="512" height="512"><g id="Fill_Outline" data-name="Fill Outline"><g id="Color"><path d="M32,3V32H3A29,29,0,0,1,32,3Z" style="fill:#ff7373"/><path d="M3,32A29,29,0,0,0,52.507,52.507L32,32Z" style="fill:#48cae4"/><path d="M9,24.5A32.481,32.481,0,0,0,9.87,32H3a28.916,28.916,0,0,1,8.86-20.87A32.576,32.576,0,0,0,9,24.5Z" style="fill:#ef5350"/><path d="M47.65,56.42A29.006,29.006,0,0,1,3,32H9.87A32.518,32.518,0,0,0,41.5,57,32.8,32.8,0,0,0,47.65,56.42Z" style="fill:#00b4d8"/><path d="M32,3V32L52.507,52.507A29,29,0,0,0,32,3Z" style="fill:#fcea42"/><path d="M19,26h4a4,4,0,0,1,4,4v2a0,0,0,0,1,0,0H15a0,0,0,0,1,0,0V30A4,4,0,0,1,19,26Z" style="fill:#fcea42"/><path d="M25,18H17v4a4,4,0,0,0,4,4h0a4,4,0,0,0,4-4Z" style="fill:#f9dbaf"/><path d="M20,21a3.983,3.983,0,0,0,3.66,3.98A3.95,3.95,0,0,1,21,26a4,4,0,0,1-4-4V18h8v1H22A2.006,2.006,0,0,0,20,21Z" style="fill:#edb88e"/><path d="M21,14H17v4h8A4,4,0,0,0,21,14Z" style="fill:#48cae4"/><path d="M20,27a3.922,3.922,0,0,1-2.33-.77A3.913,3.913,0,0,1,19,26h3.64A4,4,0,0,1,20,27Z" style="fill:#fdc741"/><path d="M27,30v2H15V30a3.971,3.971,0,0,1,2.04-3.48A3.987,3.987,0,0,0,21,30Z" style="fill:#fdc741"/><path d="M25,18H17V14h2a2.006,2.006,0,0,0,2,2h3.46A3.989,3.989,0,0,1,25,18Z" style="fill:#00b4d8"/><path d="M32,32,52.507,52.507a29.017,29.017,0,0,0,6.326-31.515Z" style="fill:#ff7373"/><path d="M46,15H38v4a4,4,0,0,0,4,4h0a4,4,0,0,0,4-4Z" style="fill:#f9dbaf"/><path d="M42,11h0a4,4,0,0,0-4,4h8A4,4,0,0,0,42,11Z" style="fill:#00b4d8"/><path d="M47.719,25.551A3.992,3.992,0,0,0,44,23H40a4,4,0,0,0-4,4v3.359Z" style="fill:#00b4d8"/><path d="M41,18a3.983,3.983,0,0,0,3.66,3.98A3.95,3.95,0,0,1,42,23a4,4,0,0,1-4-4V15h8v1H43A2.006,2.006,0,0,0,41,18Z" style="fill:#edb88e"/><path d="M46,15H38a4,4,0,0,1,2.05-3.49A2.982,2.982,0,0,0,43,14h2.87A3.657,3.657,0,0,1,46,15Z" style="fill:#0096c7"/><path d="M41,24a3.967,3.967,0,0,1-2.34-.76A3.745,3.745,0,0,1,40,23h3.64A4,4,0,0,1,41,24Z" style="fill:#0096c7"/><path d="M46.62,26,36,30.36V27a3.953,3.953,0,0,1,1.78-3.32A5.015,5.015,0,0,0,42,26Z" style="fill:#0096c7"/><path d="M34,46V61H32a28.777,28.777,0,0,1-14-3.6V46a8,8,0,0,1,16,0Z" style="fill:#fcea42"/><path d="M34,51.82V61H32a28.777,28.777,0,0,1-14-3.6V46a7.992,7.992,0,0,1,6.13-7.78,5.992,5.992,0,0,0,4.12,4.52,6.138,6.138,0,0,0,1.72.26A1.985,1.985,0,0,1,32,44.96V49A2.968,2.968,0,0,0,34,51.82Z" style="fill:#fdc741"/><path d="M34,56.13V61H32a28.777,28.777,0,0,1-14-3.6V46.94A32.39,32.39,0,0,0,34,56.13Z" style="fill:#efad1b"/><path d="M34,57v4H32a28.777,28.777,0,0,1-14-3.6V57a6,6,0,0,1,6-6h4A6,6,0,0,1,34,57Z" style="fill:#ff7373"/><path d="M34,57v4H32a28.777,28.777,0,0,1-14-3.6V57a6.009,6.009,0,0,1,4.85-5.89,32.1,32.1,0,0,0,11.08,5A5.257,5.257,0,0,1,34,57Z" style="fill:#ef5350"/><path d="M30,45h-.172A6.826,6.826,0,0,1,25,43h0a3,3,0,0,0-3,3v1a4,4,0,0,0,4,4h0a4,4,0,0,0,4-4Z" style="fill:#f9dbaf"/><path d="M30,45v2h-.17A6.835,6.835,0,0,1,25,45a3,3,0,0,0-1,.18V46a4,4,0,0,0,4,4,2.971,2.971,0,0,0,.73-.08A4,4,0,0,1,22,47V46a3,3,0,0,1,3-3,6.835,6.835,0,0,0,4.83,2Z" style="fill:#edb88e"/><path d="M25,52a3.906,3.906,0,0,1-2.41-.83A5.918,5.918,0,0,1,24,51h3.64A4,4,0,0,1,25,52Z" style="fill:#ef5350"/><path d="M34,57.98V61H32a28.777,28.777,0,0,1-14-3.6V57a6.013,6.013,0,0,1,4.01-5.66C22.31,55.05,27.34,58,33.5,58A4.1,4.1,0,0,0,34,57.98Z" style="fill:#e53935"/><path d="M54,31a2.97,2.97,0,0,0-1.47.4A2.992,2.992,0,0,0,50,30a2.948,2.948,0,0,0-1.667.519A1.992,1.992,0,0,0,45,32a1.992,1.992,0,0,0-1.31,3.5A1.978,1.978,0,0,0,43,37a1.982,1.982,0,0,0,2.675,1.875,2.977,2.977,0,0,0,5.131-.842,2.981,2.981,0,0,0,5.17-1.791A2.989,2.989,0,0,0,54,31Z" style="fill:#656b76"/><path d="M57,34a2.979,2.979,0,0,1-1.02,2.24A3,3,0,0,1,53,39a2.966,2.966,0,0,1-2.19-.97A3,3,0,0,1,48,40a2.954,2.954,0,0,1-2.32-1.13A1.956,1.956,0,0,1,45,39a2.006,2.006,0,0,1-2-2,1.976,1.976,0,0,1,.69-1.5A1.992,1.992,0,0,1,45,32a1.979,1.979,0,0,1,.64-1.45,3.13,3.13,0,0,1,.92,1.42,1.992,1.992,0,0,0,1.51,1.33,1.428,1.428,0,0,0,.41.04,4.267,4.267,0,0,1,1.84.33,2.945,2.945,0,0,0,.69.23,3.013,3.013,0,0,0,1.61-.12,4.056,4.056,0,0,1,2.39-.09,3.146,3.146,0,0,0,1.23.04,2.631,2.631,0,0,0,.72-.23A2.737,2.737,0,0,1,57,34Z" style="fill:#464a51"/><path d="M52,36a1.985,1.985,0,0,1-1.357-.539,1.469,1.469,0,0,1-1.827.367A2,2,0,0,1,47,37v2a3,3,0,0,0,6,0V35.723A1.987,1.987,0,0,1,52,36Z" style="fill:#edb88e"/><path d="M56,46v2.29a28.767,28.767,0,0,1-3.49,4.22l-8.15-8.15A3.988,3.988,0,0,1,48,42h4A4,4,0,0,1,56,46Z" style="fill:#fcea42"/><path d="M48,37.72V38a2.992,2.992,0,0,0,4.57,2.55A3,3,0,0,1,47,39V37a2,2,0,0,0,1.82-1.17,1.52,1.52,0,0,0,.68.17,1.468,1.468,0,0,0,1.14-.54,1.959,1.959,0,0,0,2.36.26v1a1.959,1.959,0,0,1-2.36-.26A1.468,1.468,0,0,1,49.5,37a1.52,1.52,0,0,1-.68-.17A2.135,2.135,0,0,1,48,37.72Z" style="fill:#da9367"/><path d="M49,43a3,3,0,0,1-2.09-.85A3.879,3.879,0,0,1,48,42h3.23A2.94,2.94,0,0,1,49,43Z" style="fill:#fdc741"/><path d="M56,47v1.29a28.767,28.767,0,0,1-3.49,4.22l-8.15-8.15a3.944,3.944,0,0,1,2.04-2.02A6.99,6.99,0,0,0,53,47Z" style="fill:#fdc741"/></g><g id="Outline_copy" data-name="Outline copy"><path d="M56.77,15.074a1,1,0,1,0-1.65,1.13A28.059,28.059,0,0,1,57.5,20.455l-9.324,3.827a4.923,4.923,0,0,0-2.458-1.968A4.964,4.964,0,0,0,47,19V15a5,5,0,0,0-10,0v4a4.964,4.964,0,0,0,1.29,3.321A4.993,4.993,0,0,0,35,27v2.688l-2,.82V4.026a28.065,28.065,0,0,1,19.727,9.146,1,1,0,1,0,1.48-1.346A30,30,0,0,0,7.23,48.926,1,1,0,0,0,8.88,47.8,27.813,27.813,0,0,1,4.037,33H31.586l3.8,3.8A1,1,0,1,0,36.8,35.383l-3.028-3.028,24.49-10.05a27.888,27.888,0,0,1-1.4,22.559A5,5,0,0,0,53.333,41.2a3.961,3.961,0,0,0,.561-1.319,4.019,4.019,0,0,0,3.026-3.168A3.987,3.987,0,0,0,54,30a3.836,3.836,0,0,0-1.169.181,4.046,4.046,0,0,0-4.442-.835A2.971,2.971,0,0,0,47,29a3,3,0,0,0-2.871,2.129A3,3,0,0,0,42,34a2.971,2.971,0,0,0,.408,1.5,2.992,2.992,0,0,0,2.943,4.479,3.987,3.987,0,0,0,.985.617,4.126,4.126,0,0,0,.323.6,4.99,4.99,0,0,0-2.47,1.585l-4.562-4.562a1,1,0,0,0-1.414,1.414L51.066,52.48A27.9,27.9,0,0,1,35,59.837V46a9,9,0,0,0-18,0v9.635a27.97,27.97,0,0,1-5.727-4.807,1,1,0,1,0-1.48,1.346,30,30,0,0,0,46.977-37.1ZM31,4.025V31H28V30a4.993,4.993,0,0,0-3.29-4.679A4.964,4.964,0,0,0,26,22V18a5.006,5.006,0,0,0-5-5H17a1,1,0,0,0-1,1v4a1,1,0,0,0,1,1h7v3a3,3,0,0,1-6,0,1,1,0,0,0-2,0,4.964,4.964,0,0,0,1.29,3.321A4.993,4.993,0,0,0,14,30v1H4.025A28.027,28.027,0,0,1,31,4.025ZM19,27h4a3,3,0,0,1,3,3v1H16V30A3,3,0,0,1,19,27Zm4.829-10H18V15h3A3.006,3.006,0,0,1,23.829,17ZM39,16h6v3a3,3,0,0,1-6,0Zm3-4a3.006,3.006,0,0,1,2.829,2H39.171A3.006,3.006,0,0,1,42,12ZM37,27a3,3,0,0,1,3-3h4a2.965,2.965,0,0,1,2.276,1.06L37,28.867ZM48,39V37.827a3.019,3.019,0,0,0,1.242-.841,2.459,2.459,0,0,0,1.447-.291A2.962,2.962,0,0,0,52,37v2a2,2,0,0,1-4,0Zm-2.663-1.066A.983.983,0,0,1,45,38a1,1,0,0,1-1-1,.974.974,0,0,1,.345-.744,1,1,0,0,0,0-1.509A.991.991,0,0,1,44,34a1,1,0,0,1,1-1,1,1,0,0,0,1-1,1,1,0,0,1,1-1,.987.987,0,0,1,.664.262,1,1,0,0,0,1.233.083,2.015,2.015,0,0,1,2.788.59,1,1,0,0,0,1.338.335A1.966,1.966,0,0,1,54,32a2,2,0,0,1,2,2,1.974,1.974,0,0,1-.685,1.492,1,1,0,0,0-.336.669A1.987,1.987,0,0,1,54,37.726v-2a1,1,0,0,0-1.5-.865,1.035,1.035,0,0,1-1.174-.129.975.975,0,0,0-.742-.266,1,1,0,0,0-.7.354.482.482,0,0,1-.6.122,1,1,0,0,0-1.369.473A1,1,0,0,1,47,36a1,1,0,0,0-1,1v.937A.98.98,0,0,0,45.337,37.934ZM48,43h4a3,3,0,0,1,3,3v1.942a28.264,28.264,0,0,1-2.52,3.124L45.615,44.2A2.984,2.984,0,0,1,48,43ZM26,39a7.008,7.008,0,0,1,7,7v6.11a7,7,0,0,0-3.222-1.872A4.956,4.956,0,0,0,31,47V45a1,1,0,0,0-1-1h-.171a5.789,5.789,0,0,1-4.122-1.707A1,1,0,0,0,25,42a4,4,0,0,0-4,4v1a4.956,4.956,0,0,0,1.222,3.238A7,7,0,0,0,19,52.11V46A7.008,7.008,0,0,1,26,39Zm-3,8V46a2,2,0,0,1,1.638-1.967A7.759,7.759,0,0,0,29,45.957V47a3,3,0,0,1-6,0Zm-3.979,9.8A5,5,0,0,1,24,52h4a5.006,5.006,0,0,1,5,5v2.975c-.333.011-.665.025-1,.025A28.032,28.032,0,0,1,19.021,56.8Z" style="fill:#323232"/></g></g></svg>
