<svg xmlns="http://www.w3.org/2000/svg" version="1.1" xmlns:xlink="http://www.w3.org/1999/xlink" width="512" height="512" x="0" y="0" viewBox="0 0 682.667 682.667" style="enable-background:new 0 0 512 512" xml:space="preserve" class=""><g><defs><clipPath id="a" clipPathUnits="userSpaceOnUse"><path d="M0 512h512V0H0Z" fill="#ffffff" opacity="1" data-original="#000000"></path></clipPath></defs><g clip-path="url(#a)" transform="matrix(1.33333 0 0 -1.33333 0 682.667)"><path d="M0 0c0-56.99-148.07-103.19-281.17-103.19C-414.27-103.19-482-56.99-482 0c0 48.08 48.2 88.48 143.2 99.93 37.87-12.95 83.99-20.74 127.93-20.74 26.83 0 50.11 2.9 69.82 8.11C-61.6 69.03 0 36.76 0 0Z" style="stroke-width:30;stroke-linecap:butt;stroke-linejoin:round;stroke-miterlimit:10;stroke-dasharray:none;stroke-opacity:1" transform="translate(497 118.19)" fill="none" stroke="#ffffff" stroke-width="30" stroke-linecap="butt" stroke-linejoin="round" stroke-miterlimit="10" stroke-dasharray="none" stroke-opacity="" data-original="#000000" opacity="1"></path><path d="M0 0c0-36.26-27.16-67.51-80.8-81.68-19.71-5.21-42.99-8.11-69.82-8.11-43.94 0-90.06 7.79-127.93 20.74C-326.7-52.58-361.5-27.76-361.5 0c0 31.26 44.11 58.79 101.73 74.86 15.41-7.28 35.07-11.5 58.94-11.5 34.47 0 70.95 8.8 98.11 22.9C-34.57 75.44 0 40.92 0 0Z" style="stroke-width:30;stroke-linecap:butt;stroke-linejoin:round;stroke-miterlimit:10;stroke-dasharray:none;stroke-opacity:1" transform="translate(436.75 287.17)" fill="none" stroke="#ffffff" stroke-width="30" stroke-linecap="butt" stroke-linejoin="round" stroke-miterlimit="10" stroke-dasharray="none" stroke-opacity="" data-original="#000000" opacity="1"></path><path d="M0 0c0-19.49-17.2-37.21-42.47-50.33-27.16-14.1-63.64-22.9-98.11-22.9-23.87 0-43.53 4.22-58.94 11.5C-227.07-48.73-241-25.94-241 0c0 40.45 33.87 73.24 100.42 73.24C-74.03 73.24 0 40.45 0 0Z" style="stroke-width:30;stroke-linecap:butt;stroke-linejoin:round;stroke-miterlimit:10;stroke-dasharray:none;stroke-opacity:1" transform="translate(376.5 423.76)" fill="none" stroke="#ffffff" stroke-width="30" stroke-linecap="butt" stroke-linejoin="round" stroke-miterlimit="10" stroke-dasharray="none" stroke-opacity="" data-original="#000000" opacity="1"></path></g></g></svg>